G04 #@! TF.GenerationSoftware,KiCad,Pcbnew,(5.1.4)-1*
G04 #@! TF.CreationDate,2019-11-18T13:36:39+01:00*
G04 #@! TF.ProjectId,LIN bus,4c494e20-6275-4732-9e6b-696361645f70,rev?*
G04 #@! TF.SameCoordinates,Original*
G04 #@! TF.FileFunction,Copper,L2,Bot*
G04 #@! TF.FilePolarity,Positive*
%FSLAX46Y46*%
G04 Gerber Fmt 4.6, Leading zero omitted, Abs format (unit mm)*
G04 Created by KiCad (PCBNEW (5.1.4)-1) date 2019-11-18 13:36:39*
%MOMM*%
%LPD*%
G04 APERTURE LIST*
%ADD10C,1.725000*%
%ADD11R,1.725000X1.725000*%
%ADD12O,1.700000X1.700000*%
%ADD13R,1.700000X1.700000*%
%ADD14R,1.574800X1.574800*%
%ADD15C,1.574800*%
%ADD16C,0.533400*%
%ADD17C,0.254000*%
G04 APERTURE END LIST*
D10*
X153162000Y-109728000D03*
D11*
X150622000Y-109728000D03*
D12*
X162433000Y-64770000D03*
X162433000Y-67310000D03*
X164973000Y-64770000D03*
X164973000Y-67310000D03*
X167513000Y-64770000D03*
X167513000Y-67310000D03*
X170053000Y-64770000D03*
X170053000Y-67310000D03*
X172593000Y-64770000D03*
D13*
X172593000Y-67310000D03*
X106807000Y-60198000D03*
D12*
X109347000Y-60198000D03*
X111887000Y-60198000D03*
X114427000Y-60198000D03*
X116967000Y-60198000D03*
X119507000Y-60198000D03*
D14*
X134747000Y-60706000D03*
D15*
X134747000Y-63246000D03*
X134747000Y-65786000D03*
X134747000Y-68326000D03*
X134747000Y-70866000D03*
X134747000Y-73406000D03*
X134747000Y-75946000D03*
X134747000Y-78486000D03*
X134747000Y-81026000D03*
X134747000Y-83566000D03*
X134747000Y-86106000D03*
X134747000Y-88646000D03*
X134747000Y-91186000D03*
X134747000Y-93726000D03*
X134747000Y-96266000D03*
X134747000Y-98806000D03*
X134747000Y-101346000D03*
X149987000Y-101346000D03*
X149987000Y-98806000D03*
X149987000Y-96266000D03*
X149987000Y-93726000D03*
X149987000Y-91186000D03*
X149987000Y-88646000D03*
X149987000Y-86106000D03*
X149987000Y-83566000D03*
X149987000Y-81026000D03*
X149987000Y-78486000D03*
X149987000Y-75946000D03*
X149987000Y-73406000D03*
X149987000Y-70866000D03*
X149987000Y-68326000D03*
X149987000Y-65786000D03*
X149987000Y-63246000D03*
X149987000Y-60706000D03*
D16*
X106807000Y-59055000D02*
X108585000Y-57277000D01*
X106807000Y-60198000D02*
X106807000Y-59055000D01*
X116967000Y-57404000D02*
X116840000Y-57277000D01*
X116967000Y-60198000D02*
X116967000Y-57404000D01*
X108585000Y-57277000D02*
X116840000Y-57277000D01*
X169672000Y-61849000D02*
X172593000Y-64770000D01*
X153035000Y-68580000D02*
X159766000Y-61849000D01*
X153035000Y-73025000D02*
X153035000Y-68580000D01*
X149987000Y-73406000D02*
X152654000Y-73406000D01*
X152654000Y-73406000D02*
X153035000Y-73025000D01*
X161036000Y-61722000D02*
X161163000Y-61849000D01*
X161163000Y-61849000D02*
X169672000Y-61849000D01*
X159766000Y-61849000D02*
X161163000Y-61849000D01*
X116840000Y-57277000D02*
X131953000Y-57277000D01*
X131953000Y-57277000D02*
X133096000Y-56134000D01*
X133096000Y-56134000D02*
X161036000Y-56134000D01*
X161036000Y-56134000D02*
X161036000Y-61722000D01*
D17*
X134747000Y-70866000D02*
X149987000Y-70866000D01*
X134747000Y-96266000D02*
X137160000Y-96266000D01*
X137160000Y-96266000D02*
X145796000Y-87630000D01*
X145796000Y-87630000D02*
X145796000Y-79883000D01*
X145796000Y-79883000D02*
X148463000Y-77216000D01*
X148463000Y-77216000D02*
X152019000Y-77216000D01*
X152019000Y-77216000D02*
X154051000Y-75184000D01*
X154051000Y-75184000D02*
X154051000Y-69215000D01*
X154051000Y-69215000D02*
X160274000Y-62992000D01*
X168275000Y-62992000D02*
X170053000Y-64770000D01*
X160274000Y-62992000D02*
X168275000Y-62992000D01*
G36*
X132749265Y-55296908D02*
G01*
X132592619Y-55380637D01*
X132455317Y-55493317D01*
X132427080Y-55527724D01*
X131579505Y-56375300D01*
X116884287Y-56375300D01*
X116840000Y-56370938D01*
X116795713Y-56375300D01*
X108629287Y-56375300D01*
X108585000Y-56370938D01*
X108540713Y-56375300D01*
X108408236Y-56388348D01*
X108238265Y-56439908D01*
X108081619Y-56523637D01*
X107944317Y-56636317D01*
X107916085Y-56670718D01*
X106200724Y-58386081D01*
X106166318Y-58414317D01*
X106053638Y-58551619D01*
X106033678Y-58588962D01*
X105969908Y-58708266D01*
X105969404Y-58709928D01*
X105957000Y-58709928D01*
X105832518Y-58722188D01*
X105712820Y-58758498D01*
X105602506Y-58817463D01*
X105505815Y-58896815D01*
X105426463Y-58993506D01*
X105367498Y-59103820D01*
X105331188Y-59223518D01*
X105318928Y-59348000D01*
X105318928Y-61048000D01*
X105331188Y-61172482D01*
X105367498Y-61292180D01*
X105426463Y-61402494D01*
X105505815Y-61499185D01*
X105602506Y-61578537D01*
X105712820Y-61637502D01*
X105832518Y-61673812D01*
X105957000Y-61686072D01*
X107657000Y-61686072D01*
X107781482Y-61673812D01*
X107901180Y-61637502D01*
X108011494Y-61578537D01*
X108108185Y-61499185D01*
X108187537Y-61402494D01*
X108246502Y-61292180D01*
X108267393Y-61223313D01*
X108291866Y-61253134D01*
X108517986Y-61438706D01*
X108775966Y-61576599D01*
X109055889Y-61661513D01*
X109274050Y-61683000D01*
X109419950Y-61683000D01*
X109638111Y-61661513D01*
X109918034Y-61576599D01*
X110176014Y-61438706D01*
X110402134Y-61253134D01*
X110587706Y-61027014D01*
X110617000Y-60972209D01*
X110646294Y-61027014D01*
X110831866Y-61253134D01*
X111057986Y-61438706D01*
X111315966Y-61576599D01*
X111595889Y-61661513D01*
X111814050Y-61683000D01*
X111959950Y-61683000D01*
X112178111Y-61661513D01*
X112458034Y-61576599D01*
X112716014Y-61438706D01*
X112942134Y-61253134D01*
X113127706Y-61027014D01*
X113157000Y-60972209D01*
X113186294Y-61027014D01*
X113371866Y-61253134D01*
X113597986Y-61438706D01*
X113855966Y-61576599D01*
X114135889Y-61661513D01*
X114354050Y-61683000D01*
X114499950Y-61683000D01*
X114718111Y-61661513D01*
X114998034Y-61576599D01*
X115256014Y-61438706D01*
X115482134Y-61253134D01*
X115667706Y-61027014D01*
X115697000Y-60972209D01*
X115726294Y-61027014D01*
X115911866Y-61253134D01*
X116137986Y-61438706D01*
X116395966Y-61576599D01*
X116675889Y-61661513D01*
X116894050Y-61683000D01*
X117039950Y-61683000D01*
X117258111Y-61661513D01*
X117538034Y-61576599D01*
X117796014Y-61438706D01*
X118022134Y-61253134D01*
X118207706Y-61027014D01*
X118242201Y-60962477D01*
X118311822Y-61079355D01*
X118506731Y-61295588D01*
X118740080Y-61469641D01*
X119002901Y-61594825D01*
X119150110Y-61639476D01*
X119380000Y-61518155D01*
X119380000Y-60325000D01*
X119634000Y-60325000D01*
X119634000Y-61518155D01*
X119863890Y-61639476D01*
X120011099Y-61594825D01*
X120273920Y-61469641D01*
X120507269Y-61295588D01*
X120702178Y-61079355D01*
X120851157Y-60829252D01*
X120948481Y-60554891D01*
X120827814Y-60325000D01*
X119634000Y-60325000D01*
X119380000Y-60325000D01*
X119360000Y-60325000D01*
X119360000Y-60071000D01*
X119380000Y-60071000D01*
X119380000Y-58877845D01*
X119634000Y-58877845D01*
X119634000Y-60071000D01*
X120827814Y-60071000D01*
X120948481Y-59841109D01*
X120851157Y-59566748D01*
X120702178Y-59316645D01*
X120507269Y-59100412D01*
X120273920Y-58926359D01*
X120011099Y-58801175D01*
X119863890Y-58756524D01*
X119634000Y-58877845D01*
X119380000Y-58877845D01*
X119150110Y-58756524D01*
X119002901Y-58801175D01*
X118740080Y-58926359D01*
X118506731Y-59100412D01*
X118311822Y-59316645D01*
X118242201Y-59433523D01*
X118207706Y-59368986D01*
X118022134Y-59142866D01*
X117868700Y-59016946D01*
X117868700Y-58178700D01*
X126341291Y-58178700D01*
X125941331Y-58344369D01*
X125575271Y-58588962D01*
X125263962Y-58900271D01*
X125019369Y-59266331D01*
X124850890Y-59673075D01*
X124765000Y-60104872D01*
X124765000Y-60545128D01*
X124850890Y-60976925D01*
X125019369Y-61383669D01*
X125263962Y-61749729D01*
X125575271Y-62061038D01*
X125941331Y-62305631D01*
X126348075Y-62474110D01*
X126779872Y-62560000D01*
X127220128Y-62560000D01*
X127651925Y-62474110D01*
X128058669Y-62305631D01*
X128424729Y-62061038D01*
X128736038Y-61749729D01*
X128980631Y-61383669D01*
X129149110Y-60976925D01*
X129235000Y-60545128D01*
X129235000Y-60104872D01*
X129149110Y-59673075D01*
X128980631Y-59266331D01*
X128736038Y-58900271D01*
X128424729Y-58588962D01*
X128058669Y-58344369D01*
X127658709Y-58178700D01*
X131908713Y-58178700D01*
X131953000Y-58183062D01*
X131997287Y-58178700D01*
X132129764Y-58165652D01*
X132299735Y-58114092D01*
X132456381Y-58030363D01*
X132593683Y-57917683D01*
X132621924Y-57883271D01*
X133469496Y-57035700D01*
X134248574Y-57035700D01*
X134162008Y-57071557D01*
X133959733Y-57206713D01*
X133787713Y-57378733D01*
X133652557Y-57581008D01*
X133559460Y-57805764D01*
X133512000Y-58044363D01*
X133512000Y-58287637D01*
X133559460Y-58526236D01*
X133652557Y-58750992D01*
X133787713Y-58953267D01*
X133959733Y-59125287D01*
X134162008Y-59260443D01*
X134210497Y-59280528D01*
X133959600Y-59280528D01*
X133835118Y-59292788D01*
X133715420Y-59329098D01*
X133605106Y-59388063D01*
X133508415Y-59467415D01*
X133429063Y-59564106D01*
X133370098Y-59674420D01*
X133333788Y-59794118D01*
X133321528Y-59918600D01*
X133321528Y-61493400D01*
X133333788Y-61617882D01*
X133370098Y-61737580D01*
X133429063Y-61847894D01*
X133508415Y-61944585D01*
X133605106Y-62023937D01*
X133715420Y-62082902D01*
X133835118Y-62119212D01*
X133868226Y-62122473D01*
X133840273Y-62141150D01*
X133642150Y-62339273D01*
X133486486Y-62572241D01*
X133379262Y-62831101D01*
X133324600Y-63105906D01*
X133324600Y-63386094D01*
X133379262Y-63660899D01*
X133486486Y-63919759D01*
X133642150Y-64152727D01*
X133840273Y-64350850D01*
X134073241Y-64506514D01*
X134096142Y-64516000D01*
X134073241Y-64525486D01*
X133840273Y-64681150D01*
X133642150Y-64879273D01*
X133486486Y-65112241D01*
X133379262Y-65371101D01*
X133324600Y-65645906D01*
X133324600Y-65926094D01*
X133379262Y-66200899D01*
X133486486Y-66459759D01*
X133642150Y-66692727D01*
X133840273Y-66890850D01*
X134073241Y-67046514D01*
X134096142Y-67056000D01*
X134073241Y-67065486D01*
X133840273Y-67221150D01*
X133642150Y-67419273D01*
X133486486Y-67652241D01*
X133379262Y-67911101D01*
X133324600Y-68185906D01*
X133324600Y-68466094D01*
X133379262Y-68740899D01*
X133486486Y-68999759D01*
X133642150Y-69232727D01*
X133840273Y-69430850D01*
X134073241Y-69586514D01*
X134096142Y-69596000D01*
X134073241Y-69605486D01*
X133840273Y-69761150D01*
X133642150Y-69959273D01*
X133486486Y-70192241D01*
X133379262Y-70451101D01*
X133324600Y-70725906D01*
X133324600Y-71006094D01*
X133379262Y-71280899D01*
X133486486Y-71539759D01*
X133642150Y-71772727D01*
X133840273Y-71970850D01*
X134073241Y-72126514D01*
X134095245Y-72135628D01*
X134012957Y-72179612D01*
X133942900Y-72422295D01*
X134747000Y-73226395D01*
X135551100Y-72422295D01*
X135481043Y-72179612D01*
X135392972Y-72138024D01*
X135420759Y-72126514D01*
X135653727Y-71970850D01*
X135851850Y-71772727D01*
X135948553Y-71628000D01*
X148785447Y-71628000D01*
X148882150Y-71772727D01*
X149080273Y-71970850D01*
X149313241Y-72126514D01*
X149336142Y-72136000D01*
X149313241Y-72145486D01*
X149080273Y-72301150D01*
X148882150Y-72499273D01*
X148726486Y-72732241D01*
X148619262Y-72991101D01*
X148564600Y-73265906D01*
X148564600Y-73546094D01*
X148619262Y-73820899D01*
X148726486Y-74079759D01*
X148882150Y-74312727D01*
X149080273Y-74510850D01*
X149313241Y-74666514D01*
X149336142Y-74676000D01*
X149313241Y-74685486D01*
X149080273Y-74841150D01*
X148882150Y-75039273D01*
X148726486Y-75272241D01*
X148619262Y-75531101D01*
X148564600Y-75805906D01*
X148564600Y-76086094D01*
X148619262Y-76360899D01*
X148657826Y-76454000D01*
X148500423Y-76454000D01*
X148463000Y-76450314D01*
X148425577Y-76454000D01*
X148425574Y-76454000D01*
X148313622Y-76465026D01*
X148169985Y-76508598D01*
X148108364Y-76541535D01*
X148037607Y-76579355D01*
X147995219Y-76614143D01*
X147921578Y-76674578D01*
X147897716Y-76703654D01*
X145283649Y-79317721D01*
X145254579Y-79341578D01*
X145230722Y-79370648D01*
X145230721Y-79370649D01*
X145159355Y-79457608D01*
X145088599Y-79589985D01*
X145045027Y-79733622D01*
X145030314Y-79883000D01*
X145034001Y-79920433D01*
X145034000Y-87314369D01*
X136844370Y-95504000D01*
X135948553Y-95504000D01*
X135851850Y-95359273D01*
X135653727Y-95161150D01*
X135420759Y-95005486D01*
X135397858Y-94996000D01*
X135420759Y-94986514D01*
X135653727Y-94830850D01*
X135851850Y-94632727D01*
X136007514Y-94399759D01*
X136114738Y-94140899D01*
X136169400Y-93866094D01*
X136169400Y-93585906D01*
X136114738Y-93311101D01*
X136007514Y-93052241D01*
X135851850Y-92819273D01*
X135653727Y-92621150D01*
X135420759Y-92465486D01*
X135397858Y-92456000D01*
X135420759Y-92446514D01*
X135653727Y-92290850D01*
X135851850Y-92092727D01*
X136007514Y-91859759D01*
X136114738Y-91600899D01*
X136169400Y-91326094D01*
X136169400Y-91045906D01*
X136114738Y-90771101D01*
X136007514Y-90512241D01*
X135851850Y-90279273D01*
X135653727Y-90081150D01*
X135420759Y-89925486D01*
X135397858Y-89916000D01*
X135420759Y-89906514D01*
X135653727Y-89750850D01*
X135851850Y-89552727D01*
X136007514Y-89319759D01*
X136114738Y-89060899D01*
X136169400Y-88786094D01*
X136169400Y-88505906D01*
X136114738Y-88231101D01*
X136007514Y-87972241D01*
X135851850Y-87739273D01*
X135653727Y-87541150D01*
X135420759Y-87385486D01*
X135397858Y-87376000D01*
X135420759Y-87366514D01*
X135653727Y-87210850D01*
X135851850Y-87012727D01*
X136007514Y-86779759D01*
X136114738Y-86520899D01*
X136169400Y-86246094D01*
X136169400Y-85965906D01*
X136114738Y-85691101D01*
X136007514Y-85432241D01*
X135851850Y-85199273D01*
X135653727Y-85001150D01*
X135420759Y-84845486D01*
X135397858Y-84836000D01*
X135420759Y-84826514D01*
X135653727Y-84670850D01*
X135851850Y-84472727D01*
X136007514Y-84239759D01*
X136114738Y-83980899D01*
X136169400Y-83706094D01*
X136169400Y-83425906D01*
X136114738Y-83151101D01*
X136007514Y-82892241D01*
X135851850Y-82659273D01*
X135653727Y-82461150D01*
X135420759Y-82305486D01*
X135397858Y-82296000D01*
X135420759Y-82286514D01*
X135653727Y-82130850D01*
X135851850Y-81932727D01*
X136007514Y-81699759D01*
X136114738Y-81440899D01*
X136169400Y-81166094D01*
X136169400Y-80885906D01*
X136114738Y-80611101D01*
X136007514Y-80352241D01*
X135851850Y-80119273D01*
X135653727Y-79921150D01*
X135420759Y-79765486D01*
X135397858Y-79756000D01*
X135420759Y-79746514D01*
X135653727Y-79590850D01*
X135851850Y-79392727D01*
X136007514Y-79159759D01*
X136114738Y-78900899D01*
X136169400Y-78626094D01*
X136169400Y-78345906D01*
X136114738Y-78071101D01*
X136007514Y-77812241D01*
X135851850Y-77579273D01*
X135653727Y-77381150D01*
X135420759Y-77225486D01*
X135397858Y-77216000D01*
X135420759Y-77206514D01*
X135653727Y-77050850D01*
X135851850Y-76852727D01*
X136007514Y-76619759D01*
X136114738Y-76360899D01*
X136169400Y-76086094D01*
X136169400Y-75805906D01*
X136114738Y-75531101D01*
X136007514Y-75272241D01*
X135851850Y-75039273D01*
X135653727Y-74841150D01*
X135420759Y-74685486D01*
X135398755Y-74676372D01*
X135481043Y-74632388D01*
X135551100Y-74389705D01*
X134747000Y-73585605D01*
X133942900Y-74389705D01*
X134012957Y-74632388D01*
X134101028Y-74673976D01*
X134073241Y-74685486D01*
X133840273Y-74841150D01*
X133642150Y-75039273D01*
X133486486Y-75272241D01*
X133379262Y-75531101D01*
X133324600Y-75805906D01*
X133324600Y-76086094D01*
X133379262Y-76360899D01*
X133486486Y-76619759D01*
X133642150Y-76852727D01*
X133840273Y-77050850D01*
X134073241Y-77206514D01*
X134096142Y-77216000D01*
X134073241Y-77225486D01*
X133840273Y-77381150D01*
X133642150Y-77579273D01*
X133486486Y-77812241D01*
X133379262Y-78071101D01*
X133324600Y-78345906D01*
X133324600Y-78626094D01*
X133379262Y-78900899D01*
X133486486Y-79159759D01*
X133642150Y-79392727D01*
X133840273Y-79590850D01*
X134073241Y-79746514D01*
X134096142Y-79756000D01*
X134073241Y-79765486D01*
X133840273Y-79921150D01*
X133642150Y-80119273D01*
X133486486Y-80352241D01*
X133379262Y-80611101D01*
X133324600Y-80885906D01*
X133324600Y-81166094D01*
X133379262Y-81440899D01*
X133486486Y-81699759D01*
X133642150Y-81932727D01*
X133840273Y-82130850D01*
X134073241Y-82286514D01*
X134096142Y-82296000D01*
X134073241Y-82305486D01*
X133840273Y-82461150D01*
X133642150Y-82659273D01*
X133486486Y-82892241D01*
X133379262Y-83151101D01*
X133324600Y-83425906D01*
X133324600Y-83706094D01*
X133379262Y-83980899D01*
X133486486Y-84239759D01*
X133642150Y-84472727D01*
X133840273Y-84670850D01*
X134073241Y-84826514D01*
X134096142Y-84836000D01*
X134073241Y-84845486D01*
X133840273Y-85001150D01*
X133642150Y-85199273D01*
X133486486Y-85432241D01*
X133379262Y-85691101D01*
X133324600Y-85965906D01*
X133324600Y-86246094D01*
X133379262Y-86520899D01*
X133486486Y-86779759D01*
X133642150Y-87012727D01*
X133840273Y-87210850D01*
X134073241Y-87366514D01*
X134096142Y-87376000D01*
X134073241Y-87385486D01*
X133840273Y-87541150D01*
X133642150Y-87739273D01*
X133486486Y-87972241D01*
X133379262Y-88231101D01*
X133324600Y-88505906D01*
X133324600Y-88786094D01*
X133379262Y-89060899D01*
X133486486Y-89319759D01*
X133642150Y-89552727D01*
X133840273Y-89750850D01*
X134073241Y-89906514D01*
X134096142Y-89916000D01*
X134073241Y-89925486D01*
X133840273Y-90081150D01*
X133642150Y-90279273D01*
X133486486Y-90512241D01*
X133379262Y-90771101D01*
X133324600Y-91045906D01*
X133324600Y-91326094D01*
X133379262Y-91600899D01*
X133486486Y-91859759D01*
X133642150Y-92092727D01*
X133840273Y-92290850D01*
X134073241Y-92446514D01*
X134096142Y-92456000D01*
X134073241Y-92465486D01*
X133840273Y-92621150D01*
X133642150Y-92819273D01*
X133486486Y-93052241D01*
X133379262Y-93311101D01*
X133324600Y-93585906D01*
X133324600Y-93866094D01*
X133379262Y-94140899D01*
X133486486Y-94399759D01*
X133642150Y-94632727D01*
X133840273Y-94830850D01*
X134073241Y-94986514D01*
X134096142Y-94996000D01*
X134073241Y-95005486D01*
X133840273Y-95161150D01*
X133642150Y-95359273D01*
X133486486Y-95592241D01*
X133379262Y-95851101D01*
X133324600Y-96125906D01*
X133324600Y-96406094D01*
X133379262Y-96680899D01*
X133486486Y-96939759D01*
X133642150Y-97172727D01*
X133840273Y-97370850D01*
X134073241Y-97526514D01*
X134096142Y-97536000D01*
X134073241Y-97545486D01*
X133840273Y-97701150D01*
X133642150Y-97899273D01*
X133486486Y-98132241D01*
X133379262Y-98391101D01*
X133324600Y-98665906D01*
X133324600Y-98946094D01*
X133379262Y-99220899D01*
X133486486Y-99479759D01*
X133642150Y-99712727D01*
X133840273Y-99910850D01*
X134073241Y-100066514D01*
X134096142Y-100076000D01*
X134073241Y-100085486D01*
X133840273Y-100241150D01*
X133642150Y-100439273D01*
X133486486Y-100672241D01*
X133379262Y-100931101D01*
X133324600Y-101205906D01*
X133324600Y-101486094D01*
X133379262Y-101760899D01*
X133486486Y-102019759D01*
X133642150Y-102252727D01*
X133840273Y-102450850D01*
X134073241Y-102606514D01*
X134332101Y-102713738D01*
X134344112Y-102716127D01*
X134162008Y-102791557D01*
X133959733Y-102926713D01*
X133787713Y-103098733D01*
X133652557Y-103301008D01*
X133559460Y-103525764D01*
X133512000Y-103764363D01*
X133512000Y-104007637D01*
X133559460Y-104246236D01*
X133652557Y-104470992D01*
X133787713Y-104673267D01*
X133959733Y-104845287D01*
X134162008Y-104980443D01*
X134386764Y-105073540D01*
X134625363Y-105121000D01*
X134868637Y-105121000D01*
X135107236Y-105073540D01*
X135331992Y-104980443D01*
X135534267Y-104845287D01*
X135706287Y-104673267D01*
X135841443Y-104470992D01*
X135934540Y-104246236D01*
X135982000Y-104007637D01*
X135982000Y-103764363D01*
X135934540Y-103525764D01*
X135841443Y-103301008D01*
X135706287Y-103098733D01*
X135534267Y-102926713D01*
X135331992Y-102791557D01*
X135149888Y-102716127D01*
X135161899Y-102713738D01*
X135420759Y-102606514D01*
X135653727Y-102450850D01*
X135851850Y-102252727D01*
X136007514Y-102019759D01*
X136114738Y-101760899D01*
X136169400Y-101486094D01*
X136169400Y-101205906D01*
X136114738Y-100931101D01*
X136007514Y-100672241D01*
X135851850Y-100439273D01*
X135653727Y-100241150D01*
X135420759Y-100085486D01*
X135397858Y-100076000D01*
X135420759Y-100066514D01*
X135653727Y-99910850D01*
X135851850Y-99712727D01*
X136007514Y-99479759D01*
X136114738Y-99220899D01*
X136169400Y-98946094D01*
X136169400Y-98665906D01*
X136114738Y-98391101D01*
X136007514Y-98132241D01*
X135851850Y-97899273D01*
X135653727Y-97701150D01*
X135420759Y-97545486D01*
X135397858Y-97536000D01*
X135420759Y-97526514D01*
X135653727Y-97370850D01*
X135851850Y-97172727D01*
X135948553Y-97028000D01*
X137122577Y-97028000D01*
X137160000Y-97031686D01*
X137197423Y-97028000D01*
X137197426Y-97028000D01*
X137309378Y-97016974D01*
X137453015Y-96973402D01*
X137585392Y-96902645D01*
X137701422Y-96807422D01*
X137725284Y-96778346D01*
X146308353Y-88195278D01*
X146337422Y-88171422D01*
X146432645Y-88055392D01*
X146503402Y-87923015D01*
X146546974Y-87779378D01*
X146558000Y-87667426D01*
X146558000Y-87667424D01*
X146561686Y-87630001D01*
X146558000Y-87592578D01*
X146558000Y-80198630D01*
X148602808Y-78153822D01*
X148564600Y-78345906D01*
X148564600Y-78626094D01*
X148619262Y-78900899D01*
X148726486Y-79159759D01*
X148882150Y-79392727D01*
X149080273Y-79590850D01*
X149313241Y-79746514D01*
X149336142Y-79756000D01*
X149313241Y-79765486D01*
X149080273Y-79921150D01*
X148882150Y-80119273D01*
X148726486Y-80352241D01*
X148619262Y-80611101D01*
X148564600Y-80885906D01*
X148564600Y-81166094D01*
X148619262Y-81440899D01*
X148726486Y-81699759D01*
X148882150Y-81932727D01*
X149080273Y-82130850D01*
X149313241Y-82286514D01*
X149336142Y-82296000D01*
X149313241Y-82305486D01*
X149080273Y-82461150D01*
X148882150Y-82659273D01*
X148726486Y-82892241D01*
X148619262Y-83151101D01*
X148564600Y-83425906D01*
X148564600Y-83706094D01*
X148619262Y-83980899D01*
X148726486Y-84239759D01*
X148882150Y-84472727D01*
X149080273Y-84670850D01*
X149313241Y-84826514D01*
X149336142Y-84836000D01*
X149313241Y-84845486D01*
X149080273Y-85001150D01*
X148882150Y-85199273D01*
X148726486Y-85432241D01*
X148619262Y-85691101D01*
X148564600Y-85965906D01*
X148564600Y-86246094D01*
X148619262Y-86520899D01*
X148726486Y-86779759D01*
X148882150Y-87012727D01*
X149080273Y-87210850D01*
X149313241Y-87366514D01*
X149336142Y-87376000D01*
X149313241Y-87385486D01*
X149080273Y-87541150D01*
X148882150Y-87739273D01*
X148726486Y-87972241D01*
X148619262Y-88231101D01*
X148564600Y-88505906D01*
X148564600Y-88786094D01*
X148619262Y-89060899D01*
X148726486Y-89319759D01*
X148882150Y-89552727D01*
X149080273Y-89750850D01*
X149313241Y-89906514D01*
X149336142Y-89916000D01*
X149313241Y-89925486D01*
X149080273Y-90081150D01*
X148882150Y-90279273D01*
X148726486Y-90512241D01*
X148619262Y-90771101D01*
X148564600Y-91045906D01*
X148564600Y-91326094D01*
X148619262Y-91600899D01*
X148726486Y-91859759D01*
X148882150Y-92092727D01*
X149080273Y-92290850D01*
X149313241Y-92446514D01*
X149336142Y-92456000D01*
X149313241Y-92465486D01*
X149080273Y-92621150D01*
X148882150Y-92819273D01*
X148726486Y-93052241D01*
X148619262Y-93311101D01*
X148564600Y-93585906D01*
X148564600Y-93866094D01*
X148619262Y-94140899D01*
X148726486Y-94399759D01*
X148882150Y-94632727D01*
X149080273Y-94830850D01*
X149313241Y-94986514D01*
X149336142Y-94996000D01*
X149313241Y-95005486D01*
X149080273Y-95161150D01*
X148882150Y-95359273D01*
X148726486Y-95592241D01*
X148619262Y-95851101D01*
X148564600Y-96125906D01*
X148564600Y-96406094D01*
X148619262Y-96680899D01*
X148726486Y-96939759D01*
X148882150Y-97172727D01*
X149080273Y-97370850D01*
X149313241Y-97526514D01*
X149336142Y-97536000D01*
X149313241Y-97545486D01*
X149080273Y-97701150D01*
X148882150Y-97899273D01*
X148726486Y-98132241D01*
X148619262Y-98391101D01*
X148564600Y-98665906D01*
X148564600Y-98946094D01*
X148619262Y-99220899D01*
X148726486Y-99479759D01*
X148882150Y-99712727D01*
X149080273Y-99910850D01*
X149313241Y-100066514D01*
X149336142Y-100076000D01*
X149313241Y-100085486D01*
X149080273Y-100241150D01*
X148882150Y-100439273D01*
X148726486Y-100672241D01*
X148619262Y-100931101D01*
X148564600Y-101205906D01*
X148564600Y-101486094D01*
X148619262Y-101760899D01*
X148726486Y-102019759D01*
X148882150Y-102252727D01*
X149080273Y-102450850D01*
X149313241Y-102606514D01*
X149572101Y-102713738D01*
X149584112Y-102716127D01*
X149402008Y-102791557D01*
X149199733Y-102926713D01*
X149027713Y-103098733D01*
X148892557Y-103301008D01*
X148799460Y-103525764D01*
X148752000Y-103764363D01*
X148752000Y-104007637D01*
X148799460Y-104246236D01*
X148892557Y-104470992D01*
X149027713Y-104673267D01*
X149199733Y-104845287D01*
X149402008Y-104980443D01*
X149626764Y-105073540D01*
X149865363Y-105121000D01*
X150108637Y-105121000D01*
X150347236Y-105073540D01*
X150571992Y-104980443D01*
X150774267Y-104845287D01*
X150946287Y-104673267D01*
X151081443Y-104470992D01*
X151174540Y-104246236D01*
X151222000Y-104007637D01*
X151222000Y-103764363D01*
X151174540Y-103525764D01*
X151081443Y-103301008D01*
X150946287Y-103098733D01*
X150774267Y-102926713D01*
X150571992Y-102791557D01*
X150389888Y-102716127D01*
X150401899Y-102713738D01*
X150660759Y-102606514D01*
X150893727Y-102450850D01*
X151091850Y-102252727D01*
X151247514Y-102019759D01*
X151354738Y-101760899D01*
X151409400Y-101486094D01*
X151409400Y-101205906D01*
X151354738Y-100931101D01*
X151247514Y-100672241D01*
X151091850Y-100439273D01*
X150893727Y-100241150D01*
X150660759Y-100085486D01*
X150637858Y-100076000D01*
X150660759Y-100066514D01*
X150893727Y-99910850D01*
X151091850Y-99712727D01*
X151247514Y-99479759D01*
X151354738Y-99220899D01*
X151409400Y-98946094D01*
X151409400Y-98665906D01*
X151354738Y-98391101D01*
X151247514Y-98132241D01*
X151091850Y-97899273D01*
X150893727Y-97701150D01*
X150660759Y-97545486D01*
X150637858Y-97536000D01*
X150660759Y-97526514D01*
X150893727Y-97370850D01*
X151091850Y-97172727D01*
X151247514Y-96939759D01*
X151354738Y-96680899D01*
X151409400Y-96406094D01*
X151409400Y-96125906D01*
X151354738Y-95851101D01*
X151247514Y-95592241D01*
X151091850Y-95359273D01*
X150893727Y-95161150D01*
X150660759Y-95005486D01*
X150637858Y-94996000D01*
X150660759Y-94986514D01*
X150893727Y-94830850D01*
X151091850Y-94632727D01*
X151247514Y-94399759D01*
X151354738Y-94140899D01*
X151409400Y-93866094D01*
X151409400Y-93585906D01*
X151354738Y-93311101D01*
X151247514Y-93052241D01*
X151091850Y-92819273D01*
X150893727Y-92621150D01*
X150660759Y-92465486D01*
X150637858Y-92456000D01*
X150660759Y-92446514D01*
X150893727Y-92290850D01*
X151091850Y-92092727D01*
X151247514Y-91859759D01*
X151354738Y-91600899D01*
X151409400Y-91326094D01*
X151409400Y-91045906D01*
X151354738Y-90771101D01*
X151247514Y-90512241D01*
X151091850Y-90279273D01*
X150893727Y-90081150D01*
X150660759Y-89925486D01*
X150637858Y-89916000D01*
X150660759Y-89906514D01*
X150893727Y-89750850D01*
X151091850Y-89552727D01*
X151247514Y-89319759D01*
X151354738Y-89060899D01*
X151409400Y-88786094D01*
X151409400Y-88505906D01*
X151354738Y-88231101D01*
X151247514Y-87972241D01*
X151091850Y-87739273D01*
X150893727Y-87541150D01*
X150660759Y-87385486D01*
X150637858Y-87376000D01*
X150660759Y-87366514D01*
X150893727Y-87210850D01*
X151091850Y-87012727D01*
X151247514Y-86779759D01*
X151354738Y-86520899D01*
X151409400Y-86246094D01*
X151409400Y-85965906D01*
X151354738Y-85691101D01*
X151247514Y-85432241D01*
X151091850Y-85199273D01*
X150893727Y-85001150D01*
X150660759Y-84845486D01*
X150637858Y-84836000D01*
X150660759Y-84826514D01*
X150893727Y-84670850D01*
X151091850Y-84472727D01*
X151247514Y-84239759D01*
X151354738Y-83980899D01*
X151409400Y-83706094D01*
X151409400Y-83425906D01*
X151354738Y-83151101D01*
X151247514Y-82892241D01*
X151091850Y-82659273D01*
X150893727Y-82461150D01*
X150660759Y-82305486D01*
X150637858Y-82296000D01*
X150660759Y-82286514D01*
X150893727Y-82130850D01*
X151091850Y-81932727D01*
X151247514Y-81699759D01*
X151354738Y-81440899D01*
X151409400Y-81166094D01*
X151409400Y-80885906D01*
X151354738Y-80611101D01*
X151247514Y-80352241D01*
X151091850Y-80119273D01*
X150893727Y-79921150D01*
X150660759Y-79765486D01*
X150637858Y-79756000D01*
X150660759Y-79746514D01*
X150893727Y-79590850D01*
X151091850Y-79392727D01*
X151247514Y-79159759D01*
X151354738Y-78900899D01*
X151409400Y-78626094D01*
X151409400Y-78345906D01*
X151354738Y-78071101D01*
X151316174Y-77978000D01*
X151981577Y-77978000D01*
X152019000Y-77981686D01*
X152056423Y-77978000D01*
X152056426Y-77978000D01*
X152168378Y-77966974D01*
X152312015Y-77923402D01*
X152444392Y-77852645D01*
X152560422Y-77757422D01*
X152584284Y-77728346D01*
X154563353Y-75749278D01*
X154592422Y-75725422D01*
X154619772Y-75692096D01*
X154687645Y-75609393D01*
X154758401Y-75477016D01*
X154758402Y-75477015D01*
X154801974Y-75333378D01*
X154813000Y-75221426D01*
X154813000Y-75221423D01*
X154816686Y-75184000D01*
X154813000Y-75146577D01*
X154813000Y-69530630D01*
X160589631Y-63754000D01*
X161345750Y-63754000D01*
X161192294Y-63940986D01*
X161054401Y-64198966D01*
X160969487Y-64478889D01*
X160940815Y-64770000D01*
X160969487Y-65061111D01*
X161054401Y-65341034D01*
X161192294Y-65599014D01*
X161377866Y-65825134D01*
X161603986Y-66010706D01*
X161658791Y-66040000D01*
X161603986Y-66069294D01*
X161377866Y-66254866D01*
X161192294Y-66480986D01*
X161054401Y-66738966D01*
X160969487Y-67018889D01*
X160940815Y-67310000D01*
X160969487Y-67601111D01*
X161054401Y-67881034D01*
X161192294Y-68139014D01*
X161377866Y-68365134D01*
X161603986Y-68550706D01*
X161861966Y-68688599D01*
X162141889Y-68773513D01*
X162360050Y-68795000D01*
X162505950Y-68795000D01*
X162724111Y-68773513D01*
X163004034Y-68688599D01*
X163262014Y-68550706D01*
X163488134Y-68365134D01*
X163673706Y-68139014D01*
X163703000Y-68084209D01*
X163732294Y-68139014D01*
X163917866Y-68365134D01*
X164143986Y-68550706D01*
X164401966Y-68688599D01*
X164681889Y-68773513D01*
X164900050Y-68795000D01*
X165045950Y-68795000D01*
X165264111Y-68773513D01*
X165544034Y-68688599D01*
X165802014Y-68550706D01*
X166028134Y-68365134D01*
X166213706Y-68139014D01*
X166243000Y-68084209D01*
X166272294Y-68139014D01*
X166457866Y-68365134D01*
X166683986Y-68550706D01*
X166941966Y-68688599D01*
X167221889Y-68773513D01*
X167440050Y-68795000D01*
X167585950Y-68795000D01*
X167804111Y-68773513D01*
X168084034Y-68688599D01*
X168342014Y-68550706D01*
X168568134Y-68365134D01*
X168753706Y-68139014D01*
X168783000Y-68084209D01*
X168812294Y-68139014D01*
X168997866Y-68365134D01*
X169223986Y-68550706D01*
X169481966Y-68688599D01*
X169761889Y-68773513D01*
X169980050Y-68795000D01*
X170125950Y-68795000D01*
X170344111Y-68773513D01*
X170624034Y-68688599D01*
X170882014Y-68550706D01*
X171108134Y-68365134D01*
X171132607Y-68335313D01*
X171153498Y-68404180D01*
X171212463Y-68514494D01*
X171291815Y-68611185D01*
X171388506Y-68690537D01*
X171498820Y-68749502D01*
X171618518Y-68785812D01*
X171743000Y-68798072D01*
X172307250Y-68795000D01*
X172466000Y-68636250D01*
X172466000Y-67437000D01*
X172720000Y-67437000D01*
X172720000Y-68636250D01*
X172878750Y-68795000D01*
X173443000Y-68798072D01*
X173567482Y-68785812D01*
X173687180Y-68749502D01*
X173797494Y-68690537D01*
X173894185Y-68611185D01*
X173973537Y-68514494D01*
X174032502Y-68404180D01*
X174068812Y-68284482D01*
X174081072Y-68160000D01*
X174078000Y-67595750D01*
X173919250Y-67437000D01*
X172720000Y-67437000D01*
X172466000Y-67437000D01*
X172446000Y-67437000D01*
X172446000Y-67183000D01*
X172466000Y-67183000D01*
X172466000Y-67163000D01*
X172720000Y-67163000D01*
X172720000Y-67183000D01*
X173919250Y-67183000D01*
X174078000Y-67024250D01*
X174081072Y-66460000D01*
X174068812Y-66335518D01*
X174032502Y-66215820D01*
X173973537Y-66105506D01*
X173894185Y-66008815D01*
X173797494Y-65929463D01*
X173687180Y-65870498D01*
X173618313Y-65849607D01*
X173648134Y-65825134D01*
X173833706Y-65599014D01*
X173971599Y-65341034D01*
X174056513Y-65061111D01*
X174085185Y-64770000D01*
X174056513Y-64478889D01*
X173971599Y-64198966D01*
X173833706Y-63940986D01*
X173648134Y-63714866D01*
X173422014Y-63529294D01*
X173164034Y-63391401D01*
X172884111Y-63306487D01*
X172665950Y-63285000D01*
X172520050Y-63285000D01*
X172395466Y-63297270D01*
X170340924Y-61242729D01*
X170312683Y-61208317D01*
X170175381Y-61095637D01*
X170018735Y-61011908D01*
X169848764Y-60960348D01*
X169716287Y-60947300D01*
X169672000Y-60942938D01*
X169627713Y-60947300D01*
X161937700Y-60947300D01*
X161937700Y-56178287D01*
X161942062Y-56134000D01*
X161924652Y-55957236D01*
X161873092Y-55787265D01*
X161789363Y-55630619D01*
X161676683Y-55493317D01*
X161539381Y-55380637D01*
X161382735Y-55296908D01*
X161294031Y-55270000D01*
X177013000Y-55270000D01*
X177013001Y-70841000D01*
X156369419Y-70841000D01*
X156337000Y-70837807D01*
X156304581Y-70841000D01*
X156207617Y-70850550D01*
X156083207Y-70888290D01*
X155968550Y-70949575D01*
X155868052Y-71032052D01*
X155785575Y-71132550D01*
X155724290Y-71247207D01*
X155686550Y-71371617D01*
X155673807Y-71501000D01*
X155677000Y-71533419D01*
X155677001Y-107663572D01*
X155677000Y-107663582D01*
X155677001Y-112243000D01*
X129438000Y-112243000D01*
X129438000Y-108872872D01*
X140132000Y-108872872D01*
X140132000Y-109313128D01*
X140217890Y-109744925D01*
X140386369Y-110151669D01*
X140630962Y-110517729D01*
X140942271Y-110829038D01*
X141308331Y-111073631D01*
X141715075Y-111242110D01*
X142146872Y-111328000D01*
X142587128Y-111328000D01*
X143018925Y-111242110D01*
X143425669Y-111073631D01*
X143791729Y-110829038D01*
X144103038Y-110517729D01*
X144347631Y-110151669D01*
X144516110Y-109744925D01*
X144602000Y-109313128D01*
X144602000Y-108872872D01*
X144600534Y-108865500D01*
X149121428Y-108865500D01*
X149121428Y-110590500D01*
X149133688Y-110714982D01*
X149169998Y-110834680D01*
X149228963Y-110944994D01*
X149308315Y-111041685D01*
X149405006Y-111121037D01*
X149515320Y-111180002D01*
X149635018Y-111216312D01*
X149759500Y-111228572D01*
X151484500Y-111228572D01*
X151608982Y-111216312D01*
X151728680Y-111180002D01*
X151838994Y-111121037D01*
X151935685Y-111041685D01*
X152015037Y-110944994D01*
X152074002Y-110834680D01*
X152095042Y-110765319D01*
X152304286Y-110765319D01*
X152383434Y-111015670D01*
X152649606Y-111142820D01*
X152935468Y-111215597D01*
X153230037Y-111231208D01*
X153521991Y-111189051D01*
X153800111Y-111090747D01*
X153940566Y-111015670D01*
X154019714Y-110765319D01*
X153162000Y-109907605D01*
X152304286Y-110765319D01*
X152095042Y-110765319D01*
X152110312Y-110714982D01*
X152122572Y-110590500D01*
X152122572Y-110585047D01*
X152124681Y-110585714D01*
X152982395Y-109728000D01*
X153341605Y-109728000D01*
X154199319Y-110585714D01*
X154449670Y-110506566D01*
X154576820Y-110240394D01*
X154649597Y-109954532D01*
X154665208Y-109659963D01*
X154623051Y-109368009D01*
X154524747Y-109089889D01*
X154449670Y-108949434D01*
X154199319Y-108870286D01*
X153341605Y-109728000D01*
X152982395Y-109728000D01*
X152124681Y-108870286D01*
X152122572Y-108870953D01*
X152122572Y-108865500D01*
X152110312Y-108741018D01*
X152095043Y-108690681D01*
X152304286Y-108690681D01*
X153162000Y-109548395D01*
X154019714Y-108690681D01*
X153940566Y-108440330D01*
X153674394Y-108313180D01*
X153388532Y-108240403D01*
X153093963Y-108224792D01*
X152802009Y-108266949D01*
X152523889Y-108365253D01*
X152383434Y-108440330D01*
X152304286Y-108690681D01*
X152095043Y-108690681D01*
X152074002Y-108621320D01*
X152015037Y-108511006D01*
X151935685Y-108414315D01*
X151838994Y-108334963D01*
X151728680Y-108275998D01*
X151608982Y-108239688D01*
X151484500Y-108227428D01*
X149759500Y-108227428D01*
X149635018Y-108239688D01*
X149515320Y-108275998D01*
X149405006Y-108334963D01*
X149308315Y-108414315D01*
X149228963Y-108511006D01*
X149169998Y-108621320D01*
X149133688Y-108741018D01*
X149121428Y-108865500D01*
X144600534Y-108865500D01*
X144516110Y-108441075D01*
X144347631Y-108034331D01*
X144103038Y-107668271D01*
X143791729Y-107356962D01*
X143425669Y-107112369D01*
X143018925Y-106943890D01*
X142587128Y-106858000D01*
X142146872Y-106858000D01*
X141715075Y-106943890D01*
X141308331Y-107112369D01*
X140942271Y-107356962D01*
X140630962Y-107668271D01*
X140386369Y-108034331D01*
X140217890Y-108441075D01*
X140132000Y-108872872D01*
X129438000Y-108872872D01*
X129438000Y-73477010D01*
X133319483Y-73477010D01*
X133360766Y-73754140D01*
X133455321Y-74017892D01*
X133520612Y-74140043D01*
X133763295Y-74210100D01*
X134567395Y-73406000D01*
X134926605Y-73406000D01*
X135730705Y-74210100D01*
X135973388Y-74140043D01*
X136093028Y-73886682D01*
X136160941Y-73614849D01*
X136174517Y-73334990D01*
X136133234Y-73057860D01*
X136038679Y-72794108D01*
X135973388Y-72671957D01*
X135730705Y-72601900D01*
X134926605Y-73406000D01*
X134567395Y-73406000D01*
X133763295Y-72601900D01*
X133520612Y-72671957D01*
X133400972Y-72925318D01*
X133333059Y-73197151D01*
X133319483Y-73477010D01*
X129438000Y-73477010D01*
X129438000Y-67342418D01*
X129441193Y-67310000D01*
X129428450Y-67180617D01*
X129390710Y-67056207D01*
X129329425Y-66941550D01*
X129246948Y-66841052D01*
X129146450Y-66758575D01*
X129031793Y-66697290D01*
X128907383Y-66659550D01*
X128810419Y-66650000D01*
X128778000Y-66646807D01*
X128745581Y-66650000D01*
X102641000Y-66650000D01*
X102641000Y-55270000D01*
X132837969Y-55270000D01*
X132749265Y-55296908D01*
X132749265Y-55296908D01*
G37*
X132749265Y-55296908D02*
X132592619Y-55380637D01*
X132455317Y-55493317D01*
X132427080Y-55527724D01*
X131579505Y-56375300D01*
X116884287Y-56375300D01*
X116840000Y-56370938D01*
X116795713Y-56375300D01*
X108629287Y-56375300D01*
X108585000Y-56370938D01*
X108540713Y-56375300D01*
X108408236Y-56388348D01*
X108238265Y-56439908D01*
X108081619Y-56523637D01*
X107944317Y-56636317D01*
X107916085Y-56670718D01*
X106200724Y-58386081D01*
X106166318Y-58414317D01*
X106053638Y-58551619D01*
X106033678Y-58588962D01*
X105969908Y-58708266D01*
X105969404Y-58709928D01*
X105957000Y-58709928D01*
X105832518Y-58722188D01*
X105712820Y-58758498D01*
X105602506Y-58817463D01*
X105505815Y-58896815D01*
X105426463Y-58993506D01*
X105367498Y-59103820D01*
X105331188Y-59223518D01*
X105318928Y-59348000D01*
X105318928Y-61048000D01*
X105331188Y-61172482D01*
X105367498Y-61292180D01*
X105426463Y-61402494D01*
X105505815Y-61499185D01*
X105602506Y-61578537D01*
X105712820Y-61637502D01*
X105832518Y-61673812D01*
X105957000Y-61686072D01*
X107657000Y-61686072D01*
X107781482Y-61673812D01*
X107901180Y-61637502D01*
X108011494Y-61578537D01*
X108108185Y-61499185D01*
X108187537Y-61402494D01*
X108246502Y-61292180D01*
X108267393Y-61223313D01*
X108291866Y-61253134D01*
X108517986Y-61438706D01*
X108775966Y-61576599D01*
X109055889Y-61661513D01*
X109274050Y-61683000D01*
X109419950Y-61683000D01*
X109638111Y-61661513D01*
X109918034Y-61576599D01*
X110176014Y-61438706D01*
X110402134Y-61253134D01*
X110587706Y-61027014D01*
X110617000Y-60972209D01*
X110646294Y-61027014D01*
X110831866Y-61253134D01*
X111057986Y-61438706D01*
X111315966Y-61576599D01*
X111595889Y-61661513D01*
X111814050Y-61683000D01*
X111959950Y-61683000D01*
X112178111Y-61661513D01*
X112458034Y-61576599D01*
X112716014Y-61438706D01*
X112942134Y-61253134D01*
X113127706Y-61027014D01*
X113157000Y-60972209D01*
X113186294Y-61027014D01*
X113371866Y-61253134D01*
X113597986Y-61438706D01*
X113855966Y-61576599D01*
X114135889Y-61661513D01*
X114354050Y-61683000D01*
X114499950Y-61683000D01*
X114718111Y-61661513D01*
X114998034Y-61576599D01*
X115256014Y-61438706D01*
X115482134Y-61253134D01*
X115667706Y-61027014D01*
X115697000Y-60972209D01*
X115726294Y-61027014D01*
X115911866Y-61253134D01*
X116137986Y-61438706D01*
X116395966Y-61576599D01*
X116675889Y-61661513D01*
X116894050Y-61683000D01*
X117039950Y-61683000D01*
X117258111Y-61661513D01*
X117538034Y-61576599D01*
X117796014Y-61438706D01*
X118022134Y-61253134D01*
X118207706Y-61027014D01*
X118242201Y-60962477D01*
X118311822Y-61079355D01*
X118506731Y-61295588D01*
X118740080Y-61469641D01*
X119002901Y-61594825D01*
X119150110Y-61639476D01*
X119380000Y-61518155D01*
X119380000Y-60325000D01*
X119634000Y-60325000D01*
X119634000Y-61518155D01*
X119863890Y-61639476D01*
X120011099Y-61594825D01*
X120273920Y-61469641D01*
X120507269Y-61295588D01*
X120702178Y-61079355D01*
X120851157Y-60829252D01*
X120948481Y-60554891D01*
X120827814Y-60325000D01*
X119634000Y-60325000D01*
X119380000Y-60325000D01*
X119360000Y-60325000D01*
X119360000Y-60071000D01*
X119380000Y-60071000D01*
X119380000Y-58877845D01*
X119634000Y-58877845D01*
X119634000Y-60071000D01*
X120827814Y-60071000D01*
X120948481Y-59841109D01*
X120851157Y-59566748D01*
X120702178Y-59316645D01*
X120507269Y-59100412D01*
X120273920Y-58926359D01*
X120011099Y-58801175D01*
X119863890Y-58756524D01*
X119634000Y-58877845D01*
X119380000Y-58877845D01*
X119150110Y-58756524D01*
X119002901Y-58801175D01*
X118740080Y-58926359D01*
X118506731Y-59100412D01*
X118311822Y-59316645D01*
X118242201Y-59433523D01*
X118207706Y-59368986D01*
X118022134Y-59142866D01*
X117868700Y-59016946D01*
X117868700Y-58178700D01*
X126341291Y-58178700D01*
X125941331Y-58344369D01*
X125575271Y-58588962D01*
X125263962Y-58900271D01*
X125019369Y-59266331D01*
X124850890Y-59673075D01*
X124765000Y-60104872D01*
X124765000Y-60545128D01*
X124850890Y-60976925D01*
X125019369Y-61383669D01*
X125263962Y-61749729D01*
X125575271Y-62061038D01*
X125941331Y-62305631D01*
X126348075Y-62474110D01*
X126779872Y-62560000D01*
X127220128Y-62560000D01*
X127651925Y-62474110D01*
X128058669Y-62305631D01*
X128424729Y-62061038D01*
X128736038Y-61749729D01*
X128980631Y-61383669D01*
X129149110Y-60976925D01*
X129235000Y-60545128D01*
X129235000Y-60104872D01*
X129149110Y-59673075D01*
X128980631Y-59266331D01*
X128736038Y-58900271D01*
X128424729Y-58588962D01*
X128058669Y-58344369D01*
X127658709Y-58178700D01*
X131908713Y-58178700D01*
X131953000Y-58183062D01*
X131997287Y-58178700D01*
X132129764Y-58165652D01*
X132299735Y-58114092D01*
X132456381Y-58030363D01*
X132593683Y-57917683D01*
X132621924Y-57883271D01*
X133469496Y-57035700D01*
X134248574Y-57035700D01*
X134162008Y-57071557D01*
X133959733Y-57206713D01*
X133787713Y-57378733D01*
X133652557Y-57581008D01*
X133559460Y-57805764D01*
X133512000Y-58044363D01*
X133512000Y-58287637D01*
X133559460Y-58526236D01*
X133652557Y-58750992D01*
X133787713Y-58953267D01*
X133959733Y-59125287D01*
X134162008Y-59260443D01*
X134210497Y-59280528D01*
X133959600Y-59280528D01*
X133835118Y-59292788D01*
X133715420Y-59329098D01*
X133605106Y-59388063D01*
X133508415Y-59467415D01*
X133429063Y-59564106D01*
X133370098Y-59674420D01*
X133333788Y-59794118D01*
X133321528Y-59918600D01*
X133321528Y-61493400D01*
X133333788Y-61617882D01*
X133370098Y-61737580D01*
X133429063Y-61847894D01*
X133508415Y-61944585D01*
X133605106Y-62023937D01*
X133715420Y-62082902D01*
X133835118Y-62119212D01*
X133868226Y-62122473D01*
X133840273Y-62141150D01*
X133642150Y-62339273D01*
X133486486Y-62572241D01*
X133379262Y-62831101D01*
X133324600Y-63105906D01*
X133324600Y-63386094D01*
X133379262Y-63660899D01*
X133486486Y-63919759D01*
X133642150Y-64152727D01*
X133840273Y-64350850D01*
X134073241Y-64506514D01*
X134096142Y-64516000D01*
X134073241Y-64525486D01*
X133840273Y-64681150D01*
X133642150Y-64879273D01*
X133486486Y-65112241D01*
X133379262Y-65371101D01*
X133324600Y-65645906D01*
X133324600Y-65926094D01*
X133379262Y-66200899D01*
X133486486Y-66459759D01*
X133642150Y-66692727D01*
X133840273Y-66890850D01*
X134073241Y-67046514D01*
X134096142Y-67056000D01*
X134073241Y-67065486D01*
X133840273Y-67221150D01*
X133642150Y-67419273D01*
X133486486Y-67652241D01*
X133379262Y-67911101D01*
X133324600Y-68185906D01*
X133324600Y-68466094D01*
X133379262Y-68740899D01*
X133486486Y-68999759D01*
X133642150Y-69232727D01*
X133840273Y-69430850D01*
X134073241Y-69586514D01*
X134096142Y-69596000D01*
X134073241Y-69605486D01*
X133840273Y-69761150D01*
X133642150Y-69959273D01*
X133486486Y-70192241D01*
X133379262Y-70451101D01*
X133324600Y-70725906D01*
X133324600Y-71006094D01*
X133379262Y-71280899D01*
X133486486Y-71539759D01*
X133642150Y-71772727D01*
X133840273Y-71970850D01*
X134073241Y-72126514D01*
X134095245Y-72135628D01*
X134012957Y-72179612D01*
X133942900Y-72422295D01*
X134747000Y-73226395D01*
X135551100Y-72422295D01*
X135481043Y-72179612D01*
X135392972Y-72138024D01*
X135420759Y-72126514D01*
X135653727Y-71970850D01*
X135851850Y-71772727D01*
X135948553Y-71628000D01*
X148785447Y-71628000D01*
X148882150Y-71772727D01*
X149080273Y-71970850D01*
X149313241Y-72126514D01*
X149336142Y-72136000D01*
X149313241Y-72145486D01*
X149080273Y-72301150D01*
X148882150Y-72499273D01*
X148726486Y-72732241D01*
X148619262Y-72991101D01*
X148564600Y-73265906D01*
X148564600Y-73546094D01*
X148619262Y-73820899D01*
X148726486Y-74079759D01*
X148882150Y-74312727D01*
X149080273Y-74510850D01*
X149313241Y-74666514D01*
X149336142Y-74676000D01*
X149313241Y-74685486D01*
X149080273Y-74841150D01*
X148882150Y-75039273D01*
X148726486Y-75272241D01*
X148619262Y-75531101D01*
X148564600Y-75805906D01*
X148564600Y-76086094D01*
X148619262Y-76360899D01*
X148657826Y-76454000D01*
X148500423Y-76454000D01*
X148463000Y-76450314D01*
X148425577Y-76454000D01*
X148425574Y-76454000D01*
X148313622Y-76465026D01*
X148169985Y-76508598D01*
X148108364Y-76541535D01*
X148037607Y-76579355D01*
X147995219Y-76614143D01*
X147921578Y-76674578D01*
X147897716Y-76703654D01*
X145283649Y-79317721D01*
X145254579Y-79341578D01*
X145230722Y-79370648D01*
X145230721Y-79370649D01*
X145159355Y-79457608D01*
X145088599Y-79589985D01*
X145045027Y-79733622D01*
X145030314Y-79883000D01*
X145034001Y-79920433D01*
X145034000Y-87314369D01*
X136844370Y-95504000D01*
X135948553Y-95504000D01*
X135851850Y-95359273D01*
X135653727Y-95161150D01*
X135420759Y-95005486D01*
X135397858Y-94996000D01*
X135420759Y-94986514D01*
X135653727Y-94830850D01*
X135851850Y-94632727D01*
X136007514Y-94399759D01*
X136114738Y-94140899D01*
X136169400Y-93866094D01*
X136169400Y-93585906D01*
X136114738Y-93311101D01*
X136007514Y-93052241D01*
X135851850Y-92819273D01*
X135653727Y-92621150D01*
X135420759Y-92465486D01*
X135397858Y-92456000D01*
X135420759Y-92446514D01*
X135653727Y-92290850D01*
X135851850Y-92092727D01*
X136007514Y-91859759D01*
X136114738Y-91600899D01*
X136169400Y-91326094D01*
X136169400Y-91045906D01*
X136114738Y-90771101D01*
X136007514Y-90512241D01*
X135851850Y-90279273D01*
X135653727Y-90081150D01*
X135420759Y-89925486D01*
X135397858Y-89916000D01*
X135420759Y-89906514D01*
X135653727Y-89750850D01*
X135851850Y-89552727D01*
X136007514Y-89319759D01*
X136114738Y-89060899D01*
X136169400Y-88786094D01*
X136169400Y-88505906D01*
X136114738Y-88231101D01*
X136007514Y-87972241D01*
X135851850Y-87739273D01*
X135653727Y-87541150D01*
X135420759Y-87385486D01*
X135397858Y-87376000D01*
X135420759Y-87366514D01*
X135653727Y-87210850D01*
X135851850Y-87012727D01*
X136007514Y-86779759D01*
X136114738Y-86520899D01*
X136169400Y-86246094D01*
X136169400Y-85965906D01*
X136114738Y-85691101D01*
X136007514Y-85432241D01*
X135851850Y-85199273D01*
X135653727Y-85001150D01*
X135420759Y-84845486D01*
X135397858Y-84836000D01*
X135420759Y-84826514D01*
X135653727Y-84670850D01*
X135851850Y-84472727D01*
X136007514Y-84239759D01*
X136114738Y-83980899D01*
X136169400Y-83706094D01*
X136169400Y-83425906D01*
X136114738Y-83151101D01*
X136007514Y-82892241D01*
X135851850Y-82659273D01*
X135653727Y-82461150D01*
X135420759Y-82305486D01*
X135397858Y-82296000D01*
X135420759Y-82286514D01*
X135653727Y-82130850D01*
X135851850Y-81932727D01*
X136007514Y-81699759D01*
X136114738Y-81440899D01*
X136169400Y-81166094D01*
X136169400Y-80885906D01*
X136114738Y-80611101D01*
X136007514Y-80352241D01*
X135851850Y-80119273D01*
X135653727Y-79921150D01*
X135420759Y-79765486D01*
X135397858Y-79756000D01*
X135420759Y-79746514D01*
X135653727Y-79590850D01*
X135851850Y-79392727D01*
X136007514Y-79159759D01*
X136114738Y-78900899D01*
X136169400Y-78626094D01*
X136169400Y-78345906D01*
X136114738Y-78071101D01*
X136007514Y-77812241D01*
X135851850Y-77579273D01*
X135653727Y-77381150D01*
X135420759Y-77225486D01*
X135397858Y-77216000D01*
X135420759Y-77206514D01*
X135653727Y-77050850D01*
X135851850Y-76852727D01*
X136007514Y-76619759D01*
X136114738Y-76360899D01*
X136169400Y-76086094D01*
X136169400Y-75805906D01*
X136114738Y-75531101D01*
X136007514Y-75272241D01*
X135851850Y-75039273D01*
X135653727Y-74841150D01*
X135420759Y-74685486D01*
X135398755Y-74676372D01*
X135481043Y-74632388D01*
X135551100Y-74389705D01*
X134747000Y-73585605D01*
X133942900Y-74389705D01*
X134012957Y-74632388D01*
X134101028Y-74673976D01*
X134073241Y-74685486D01*
X133840273Y-74841150D01*
X133642150Y-75039273D01*
X133486486Y-75272241D01*
X133379262Y-75531101D01*
X133324600Y-75805906D01*
X133324600Y-76086094D01*
X133379262Y-76360899D01*
X133486486Y-76619759D01*
X133642150Y-76852727D01*
X133840273Y-77050850D01*
X134073241Y-77206514D01*
X134096142Y-77216000D01*
X134073241Y-77225486D01*
X133840273Y-77381150D01*
X133642150Y-77579273D01*
X133486486Y-77812241D01*
X133379262Y-78071101D01*
X133324600Y-78345906D01*
X133324600Y-78626094D01*
X133379262Y-78900899D01*
X133486486Y-79159759D01*
X133642150Y-79392727D01*
X133840273Y-79590850D01*
X134073241Y-79746514D01*
X134096142Y-79756000D01*
X134073241Y-79765486D01*
X133840273Y-79921150D01*
X133642150Y-80119273D01*
X133486486Y-80352241D01*
X133379262Y-80611101D01*
X133324600Y-80885906D01*
X133324600Y-81166094D01*
X133379262Y-81440899D01*
X133486486Y-81699759D01*
X133642150Y-81932727D01*
X133840273Y-82130850D01*
X134073241Y-82286514D01*
X134096142Y-82296000D01*
X134073241Y-82305486D01*
X133840273Y-82461150D01*
X133642150Y-82659273D01*
X133486486Y-82892241D01*
X133379262Y-83151101D01*
X133324600Y-83425906D01*
X133324600Y-83706094D01*
X133379262Y-83980899D01*
X133486486Y-84239759D01*
X133642150Y-84472727D01*
X133840273Y-84670850D01*
X134073241Y-84826514D01*
X134096142Y-84836000D01*
X134073241Y-84845486D01*
X133840273Y-85001150D01*
X133642150Y-85199273D01*
X133486486Y-85432241D01*
X133379262Y-85691101D01*
X133324600Y-85965906D01*
X133324600Y-86246094D01*
X133379262Y-86520899D01*
X133486486Y-86779759D01*
X133642150Y-87012727D01*
X133840273Y-87210850D01*
X134073241Y-87366514D01*
X134096142Y-87376000D01*
X134073241Y-87385486D01*
X133840273Y-87541150D01*
X133642150Y-87739273D01*
X133486486Y-87972241D01*
X133379262Y-88231101D01*
X133324600Y-88505906D01*
X133324600Y-88786094D01*
X133379262Y-89060899D01*
X133486486Y-89319759D01*
X133642150Y-89552727D01*
X133840273Y-89750850D01*
X134073241Y-89906514D01*
X134096142Y-89916000D01*
X134073241Y-89925486D01*
X133840273Y-90081150D01*
X133642150Y-90279273D01*
X133486486Y-90512241D01*
X133379262Y-90771101D01*
X133324600Y-91045906D01*
X133324600Y-91326094D01*
X133379262Y-91600899D01*
X133486486Y-91859759D01*
X133642150Y-92092727D01*
X133840273Y-92290850D01*
X134073241Y-92446514D01*
X134096142Y-92456000D01*
X134073241Y-92465486D01*
X133840273Y-92621150D01*
X133642150Y-92819273D01*
X133486486Y-93052241D01*
X133379262Y-93311101D01*
X133324600Y-93585906D01*
X133324600Y-93866094D01*
X133379262Y-94140899D01*
X133486486Y-94399759D01*
X133642150Y-94632727D01*
X133840273Y-94830850D01*
X134073241Y-94986514D01*
X134096142Y-94996000D01*
X134073241Y-95005486D01*
X133840273Y-95161150D01*
X133642150Y-95359273D01*
X133486486Y-95592241D01*
X133379262Y-95851101D01*
X133324600Y-96125906D01*
X133324600Y-96406094D01*
X133379262Y-96680899D01*
X133486486Y-96939759D01*
X133642150Y-97172727D01*
X133840273Y-97370850D01*
X134073241Y-97526514D01*
X134096142Y-97536000D01*
X134073241Y-97545486D01*
X133840273Y-97701150D01*
X133642150Y-97899273D01*
X133486486Y-98132241D01*
X133379262Y-98391101D01*
X133324600Y-98665906D01*
X133324600Y-98946094D01*
X133379262Y-99220899D01*
X133486486Y-99479759D01*
X133642150Y-99712727D01*
X133840273Y-99910850D01*
X134073241Y-100066514D01*
X134096142Y-100076000D01*
X134073241Y-100085486D01*
X133840273Y-100241150D01*
X133642150Y-100439273D01*
X133486486Y-100672241D01*
X133379262Y-100931101D01*
X133324600Y-101205906D01*
X133324600Y-101486094D01*
X133379262Y-101760899D01*
X133486486Y-102019759D01*
X133642150Y-102252727D01*
X133840273Y-102450850D01*
X134073241Y-102606514D01*
X134332101Y-102713738D01*
X134344112Y-102716127D01*
X134162008Y-102791557D01*
X133959733Y-102926713D01*
X133787713Y-103098733D01*
X133652557Y-103301008D01*
X133559460Y-103525764D01*
X133512000Y-103764363D01*
X133512000Y-104007637D01*
X133559460Y-104246236D01*
X133652557Y-104470992D01*
X133787713Y-104673267D01*
X133959733Y-104845287D01*
X134162008Y-104980443D01*
X134386764Y-105073540D01*
X134625363Y-105121000D01*
X134868637Y-105121000D01*
X135107236Y-105073540D01*
X135331992Y-104980443D01*
X135534267Y-104845287D01*
X135706287Y-104673267D01*
X135841443Y-104470992D01*
X135934540Y-104246236D01*
X135982000Y-104007637D01*
X135982000Y-103764363D01*
X135934540Y-103525764D01*
X135841443Y-103301008D01*
X135706287Y-103098733D01*
X135534267Y-102926713D01*
X135331992Y-102791557D01*
X135149888Y-102716127D01*
X135161899Y-102713738D01*
X135420759Y-102606514D01*
X135653727Y-102450850D01*
X135851850Y-102252727D01*
X136007514Y-102019759D01*
X136114738Y-101760899D01*
X136169400Y-101486094D01*
X136169400Y-101205906D01*
X136114738Y-100931101D01*
X136007514Y-100672241D01*
X135851850Y-100439273D01*
X135653727Y-100241150D01*
X135420759Y-100085486D01*
X135397858Y-100076000D01*
X135420759Y-100066514D01*
X135653727Y-99910850D01*
X135851850Y-99712727D01*
X136007514Y-99479759D01*
X136114738Y-99220899D01*
X136169400Y-98946094D01*
X136169400Y-98665906D01*
X136114738Y-98391101D01*
X136007514Y-98132241D01*
X135851850Y-97899273D01*
X135653727Y-97701150D01*
X135420759Y-97545486D01*
X135397858Y-97536000D01*
X135420759Y-97526514D01*
X135653727Y-97370850D01*
X135851850Y-97172727D01*
X135948553Y-97028000D01*
X137122577Y-97028000D01*
X137160000Y-97031686D01*
X137197423Y-97028000D01*
X137197426Y-97028000D01*
X137309378Y-97016974D01*
X137453015Y-96973402D01*
X137585392Y-96902645D01*
X137701422Y-96807422D01*
X137725284Y-96778346D01*
X146308353Y-88195278D01*
X146337422Y-88171422D01*
X146432645Y-88055392D01*
X146503402Y-87923015D01*
X146546974Y-87779378D01*
X146558000Y-87667426D01*
X146558000Y-87667424D01*
X146561686Y-87630001D01*
X146558000Y-87592578D01*
X146558000Y-80198630D01*
X148602808Y-78153822D01*
X148564600Y-78345906D01*
X148564600Y-78626094D01*
X148619262Y-78900899D01*
X148726486Y-79159759D01*
X148882150Y-79392727D01*
X149080273Y-79590850D01*
X149313241Y-79746514D01*
X149336142Y-79756000D01*
X149313241Y-79765486D01*
X149080273Y-79921150D01*
X148882150Y-80119273D01*
X148726486Y-80352241D01*
X148619262Y-80611101D01*
X148564600Y-80885906D01*
X148564600Y-81166094D01*
X148619262Y-81440899D01*
X148726486Y-81699759D01*
X148882150Y-81932727D01*
X149080273Y-82130850D01*
X149313241Y-82286514D01*
X149336142Y-82296000D01*
X149313241Y-82305486D01*
X149080273Y-82461150D01*
X148882150Y-82659273D01*
X148726486Y-82892241D01*
X148619262Y-83151101D01*
X148564600Y-83425906D01*
X148564600Y-83706094D01*
X148619262Y-83980899D01*
X148726486Y-84239759D01*
X148882150Y-84472727D01*
X149080273Y-84670850D01*
X149313241Y-84826514D01*
X149336142Y-84836000D01*
X149313241Y-84845486D01*
X149080273Y-85001150D01*
X148882150Y-85199273D01*
X148726486Y-85432241D01*
X148619262Y-85691101D01*
X148564600Y-85965906D01*
X148564600Y-86246094D01*
X148619262Y-86520899D01*
X148726486Y-86779759D01*
X148882150Y-87012727D01*
X149080273Y-87210850D01*
X149313241Y-87366514D01*
X149336142Y-87376000D01*
X149313241Y-87385486D01*
X149080273Y-87541150D01*
X148882150Y-87739273D01*
X148726486Y-87972241D01*
X148619262Y-88231101D01*
X148564600Y-88505906D01*
X148564600Y-88786094D01*
X148619262Y-89060899D01*
X148726486Y-89319759D01*
X148882150Y-89552727D01*
X149080273Y-89750850D01*
X149313241Y-89906514D01*
X149336142Y-89916000D01*
X149313241Y-89925486D01*
X149080273Y-90081150D01*
X148882150Y-90279273D01*
X148726486Y-90512241D01*
X148619262Y-90771101D01*
X148564600Y-91045906D01*
X148564600Y-91326094D01*
X148619262Y-91600899D01*
X148726486Y-91859759D01*
X148882150Y-92092727D01*
X149080273Y-92290850D01*
X149313241Y-92446514D01*
X149336142Y-92456000D01*
X149313241Y-92465486D01*
X149080273Y-92621150D01*
X148882150Y-92819273D01*
X148726486Y-93052241D01*
X148619262Y-93311101D01*
X148564600Y-93585906D01*
X148564600Y-93866094D01*
X148619262Y-94140899D01*
X148726486Y-94399759D01*
X148882150Y-94632727D01*
X149080273Y-94830850D01*
X149313241Y-94986514D01*
X149336142Y-94996000D01*
X149313241Y-95005486D01*
X149080273Y-95161150D01*
X148882150Y-95359273D01*
X148726486Y-95592241D01*
X148619262Y-95851101D01*
X148564600Y-96125906D01*
X148564600Y-96406094D01*
X148619262Y-96680899D01*
X148726486Y-96939759D01*
X148882150Y-97172727D01*
X149080273Y-97370850D01*
X149313241Y-97526514D01*
X149336142Y-97536000D01*
X149313241Y-97545486D01*
X149080273Y-97701150D01*
X148882150Y-97899273D01*
X148726486Y-98132241D01*
X148619262Y-98391101D01*
X148564600Y-98665906D01*
X148564600Y-98946094D01*
X148619262Y-99220899D01*
X148726486Y-99479759D01*
X148882150Y-99712727D01*
X149080273Y-99910850D01*
X149313241Y-100066514D01*
X149336142Y-100076000D01*
X149313241Y-100085486D01*
X149080273Y-100241150D01*
X148882150Y-100439273D01*
X148726486Y-100672241D01*
X148619262Y-100931101D01*
X148564600Y-101205906D01*
X148564600Y-101486094D01*
X148619262Y-101760899D01*
X148726486Y-102019759D01*
X148882150Y-102252727D01*
X149080273Y-102450850D01*
X149313241Y-102606514D01*
X149572101Y-102713738D01*
X149584112Y-102716127D01*
X149402008Y-102791557D01*
X149199733Y-102926713D01*
X149027713Y-103098733D01*
X148892557Y-103301008D01*
X148799460Y-103525764D01*
X148752000Y-103764363D01*
X148752000Y-104007637D01*
X148799460Y-104246236D01*
X148892557Y-104470992D01*
X149027713Y-104673267D01*
X149199733Y-104845287D01*
X149402008Y-104980443D01*
X149626764Y-105073540D01*
X149865363Y-105121000D01*
X150108637Y-105121000D01*
X150347236Y-105073540D01*
X150571992Y-104980443D01*
X150774267Y-104845287D01*
X150946287Y-104673267D01*
X151081443Y-104470992D01*
X151174540Y-104246236D01*
X151222000Y-104007637D01*
X151222000Y-103764363D01*
X151174540Y-103525764D01*
X151081443Y-103301008D01*
X150946287Y-103098733D01*
X150774267Y-102926713D01*
X150571992Y-102791557D01*
X150389888Y-102716127D01*
X150401899Y-102713738D01*
X150660759Y-102606514D01*
X150893727Y-102450850D01*
X151091850Y-102252727D01*
X151247514Y-102019759D01*
X151354738Y-101760899D01*
X151409400Y-101486094D01*
X151409400Y-101205906D01*
X151354738Y-100931101D01*
X151247514Y-100672241D01*
X151091850Y-100439273D01*
X150893727Y-100241150D01*
X150660759Y-100085486D01*
X150637858Y-100076000D01*
X150660759Y-100066514D01*
X150893727Y-99910850D01*
X151091850Y-99712727D01*
X151247514Y-99479759D01*
X151354738Y-99220899D01*
X151409400Y-98946094D01*
X151409400Y-98665906D01*
X151354738Y-98391101D01*
X151247514Y-98132241D01*
X151091850Y-97899273D01*
X150893727Y-97701150D01*
X150660759Y-97545486D01*
X150637858Y-97536000D01*
X150660759Y-97526514D01*
X150893727Y-97370850D01*
X151091850Y-97172727D01*
X151247514Y-96939759D01*
X151354738Y-96680899D01*
X151409400Y-96406094D01*
X151409400Y-96125906D01*
X151354738Y-95851101D01*
X151247514Y-95592241D01*
X151091850Y-95359273D01*
X150893727Y-95161150D01*
X150660759Y-95005486D01*
X150637858Y-94996000D01*
X150660759Y-94986514D01*
X150893727Y-94830850D01*
X151091850Y-94632727D01*
X151247514Y-94399759D01*
X151354738Y-94140899D01*
X151409400Y-93866094D01*
X151409400Y-93585906D01*
X151354738Y-93311101D01*
X151247514Y-93052241D01*
X151091850Y-92819273D01*
X150893727Y-92621150D01*
X150660759Y-92465486D01*
X150637858Y-92456000D01*
X150660759Y-92446514D01*
X150893727Y-92290850D01*
X151091850Y-92092727D01*
X151247514Y-91859759D01*
X151354738Y-91600899D01*
X151409400Y-91326094D01*
X151409400Y-91045906D01*
X151354738Y-90771101D01*
X151247514Y-90512241D01*
X151091850Y-90279273D01*
X150893727Y-90081150D01*
X150660759Y-89925486D01*
X150637858Y-89916000D01*
X150660759Y-89906514D01*
X150893727Y-89750850D01*
X151091850Y-89552727D01*
X151247514Y-89319759D01*
X151354738Y-89060899D01*
X151409400Y-88786094D01*
X151409400Y-88505906D01*
X151354738Y-88231101D01*
X151247514Y-87972241D01*
X151091850Y-87739273D01*
X150893727Y-87541150D01*
X150660759Y-87385486D01*
X150637858Y-87376000D01*
X150660759Y-87366514D01*
X150893727Y-87210850D01*
X151091850Y-87012727D01*
X151247514Y-86779759D01*
X151354738Y-86520899D01*
X151409400Y-86246094D01*
X151409400Y-85965906D01*
X151354738Y-85691101D01*
X151247514Y-85432241D01*
X151091850Y-85199273D01*
X150893727Y-85001150D01*
X150660759Y-84845486D01*
X150637858Y-84836000D01*
X150660759Y-84826514D01*
X150893727Y-84670850D01*
X151091850Y-84472727D01*
X151247514Y-84239759D01*
X151354738Y-83980899D01*
X151409400Y-83706094D01*
X151409400Y-83425906D01*
X151354738Y-83151101D01*
X151247514Y-82892241D01*
X151091850Y-82659273D01*
X150893727Y-82461150D01*
X150660759Y-82305486D01*
X150637858Y-82296000D01*
X150660759Y-82286514D01*
X150893727Y-82130850D01*
X151091850Y-81932727D01*
X151247514Y-81699759D01*
X151354738Y-81440899D01*
X151409400Y-81166094D01*
X151409400Y-80885906D01*
X151354738Y-80611101D01*
X151247514Y-80352241D01*
X151091850Y-80119273D01*
X150893727Y-79921150D01*
X150660759Y-79765486D01*
X150637858Y-79756000D01*
X150660759Y-79746514D01*
X150893727Y-79590850D01*
X151091850Y-79392727D01*
X151247514Y-79159759D01*
X151354738Y-78900899D01*
X151409400Y-78626094D01*
X151409400Y-78345906D01*
X151354738Y-78071101D01*
X151316174Y-77978000D01*
X151981577Y-77978000D01*
X152019000Y-77981686D01*
X152056423Y-77978000D01*
X152056426Y-77978000D01*
X152168378Y-77966974D01*
X152312015Y-77923402D01*
X152444392Y-77852645D01*
X152560422Y-77757422D01*
X152584284Y-77728346D01*
X154563353Y-75749278D01*
X154592422Y-75725422D01*
X154619772Y-75692096D01*
X154687645Y-75609393D01*
X154758401Y-75477016D01*
X154758402Y-75477015D01*
X154801974Y-75333378D01*
X154813000Y-75221426D01*
X154813000Y-75221423D01*
X154816686Y-75184000D01*
X154813000Y-75146577D01*
X154813000Y-69530630D01*
X160589631Y-63754000D01*
X161345750Y-63754000D01*
X161192294Y-63940986D01*
X161054401Y-64198966D01*
X160969487Y-64478889D01*
X160940815Y-64770000D01*
X160969487Y-65061111D01*
X161054401Y-65341034D01*
X161192294Y-65599014D01*
X161377866Y-65825134D01*
X161603986Y-66010706D01*
X161658791Y-66040000D01*
X161603986Y-66069294D01*
X161377866Y-66254866D01*
X161192294Y-66480986D01*
X161054401Y-66738966D01*
X160969487Y-67018889D01*
X160940815Y-67310000D01*
X160969487Y-67601111D01*
X161054401Y-67881034D01*
X161192294Y-68139014D01*
X161377866Y-68365134D01*
X161603986Y-68550706D01*
X161861966Y-68688599D01*
X162141889Y-68773513D01*
X162360050Y-68795000D01*
X162505950Y-68795000D01*
X162724111Y-68773513D01*
X163004034Y-68688599D01*
X163262014Y-68550706D01*
X163488134Y-68365134D01*
X163673706Y-68139014D01*
X163703000Y-68084209D01*
X163732294Y-68139014D01*
X163917866Y-68365134D01*
X164143986Y-68550706D01*
X164401966Y-68688599D01*
X164681889Y-68773513D01*
X164900050Y-68795000D01*
X165045950Y-68795000D01*
X165264111Y-68773513D01*
X165544034Y-68688599D01*
X165802014Y-68550706D01*
X166028134Y-68365134D01*
X166213706Y-68139014D01*
X166243000Y-68084209D01*
X166272294Y-68139014D01*
X166457866Y-68365134D01*
X166683986Y-68550706D01*
X166941966Y-68688599D01*
X167221889Y-68773513D01*
X167440050Y-68795000D01*
X167585950Y-68795000D01*
X167804111Y-68773513D01*
X168084034Y-68688599D01*
X168342014Y-68550706D01*
X168568134Y-68365134D01*
X168753706Y-68139014D01*
X168783000Y-68084209D01*
X168812294Y-68139014D01*
X168997866Y-68365134D01*
X169223986Y-68550706D01*
X169481966Y-68688599D01*
X169761889Y-68773513D01*
X169980050Y-68795000D01*
X170125950Y-68795000D01*
X170344111Y-68773513D01*
X170624034Y-68688599D01*
X170882014Y-68550706D01*
X171108134Y-68365134D01*
X171132607Y-68335313D01*
X171153498Y-68404180D01*
X171212463Y-68514494D01*
X171291815Y-68611185D01*
X171388506Y-68690537D01*
X171498820Y-68749502D01*
X171618518Y-68785812D01*
X171743000Y-68798072D01*
X172307250Y-68795000D01*
X172466000Y-68636250D01*
X172466000Y-67437000D01*
X172720000Y-67437000D01*
X172720000Y-68636250D01*
X172878750Y-68795000D01*
X173443000Y-68798072D01*
X173567482Y-68785812D01*
X173687180Y-68749502D01*
X173797494Y-68690537D01*
X173894185Y-68611185D01*
X173973537Y-68514494D01*
X174032502Y-68404180D01*
X174068812Y-68284482D01*
X174081072Y-68160000D01*
X174078000Y-67595750D01*
X173919250Y-67437000D01*
X172720000Y-67437000D01*
X172466000Y-67437000D01*
X172446000Y-67437000D01*
X172446000Y-67183000D01*
X172466000Y-67183000D01*
X172466000Y-67163000D01*
X172720000Y-67163000D01*
X172720000Y-67183000D01*
X173919250Y-67183000D01*
X174078000Y-67024250D01*
X174081072Y-66460000D01*
X174068812Y-66335518D01*
X174032502Y-66215820D01*
X173973537Y-66105506D01*
X173894185Y-66008815D01*
X173797494Y-65929463D01*
X173687180Y-65870498D01*
X173618313Y-65849607D01*
X173648134Y-65825134D01*
X173833706Y-65599014D01*
X173971599Y-65341034D01*
X174056513Y-65061111D01*
X174085185Y-64770000D01*
X174056513Y-64478889D01*
X173971599Y-64198966D01*
X173833706Y-63940986D01*
X173648134Y-63714866D01*
X173422014Y-63529294D01*
X173164034Y-63391401D01*
X172884111Y-63306487D01*
X172665950Y-63285000D01*
X172520050Y-63285000D01*
X172395466Y-63297270D01*
X170340924Y-61242729D01*
X170312683Y-61208317D01*
X170175381Y-61095637D01*
X170018735Y-61011908D01*
X169848764Y-60960348D01*
X169716287Y-60947300D01*
X169672000Y-60942938D01*
X169627713Y-60947300D01*
X161937700Y-60947300D01*
X161937700Y-56178287D01*
X161942062Y-56134000D01*
X161924652Y-55957236D01*
X161873092Y-55787265D01*
X161789363Y-55630619D01*
X161676683Y-55493317D01*
X161539381Y-55380637D01*
X161382735Y-55296908D01*
X161294031Y-55270000D01*
X177013000Y-55270000D01*
X177013001Y-70841000D01*
X156369419Y-70841000D01*
X156337000Y-70837807D01*
X156304581Y-70841000D01*
X156207617Y-70850550D01*
X156083207Y-70888290D01*
X155968550Y-70949575D01*
X155868052Y-71032052D01*
X155785575Y-71132550D01*
X155724290Y-71247207D01*
X155686550Y-71371617D01*
X155673807Y-71501000D01*
X155677000Y-71533419D01*
X155677001Y-107663572D01*
X155677000Y-107663582D01*
X155677001Y-112243000D01*
X129438000Y-112243000D01*
X129438000Y-108872872D01*
X140132000Y-108872872D01*
X140132000Y-109313128D01*
X140217890Y-109744925D01*
X140386369Y-110151669D01*
X140630962Y-110517729D01*
X140942271Y-110829038D01*
X141308331Y-111073631D01*
X141715075Y-111242110D01*
X142146872Y-111328000D01*
X142587128Y-111328000D01*
X143018925Y-111242110D01*
X143425669Y-111073631D01*
X143791729Y-110829038D01*
X144103038Y-110517729D01*
X144347631Y-110151669D01*
X144516110Y-109744925D01*
X144602000Y-109313128D01*
X144602000Y-108872872D01*
X144600534Y-108865500D01*
X149121428Y-108865500D01*
X149121428Y-110590500D01*
X149133688Y-110714982D01*
X149169998Y-110834680D01*
X149228963Y-110944994D01*
X149308315Y-111041685D01*
X149405006Y-111121037D01*
X149515320Y-111180002D01*
X149635018Y-111216312D01*
X149759500Y-111228572D01*
X151484500Y-111228572D01*
X151608982Y-111216312D01*
X151728680Y-111180002D01*
X151838994Y-111121037D01*
X151935685Y-111041685D01*
X152015037Y-110944994D01*
X152074002Y-110834680D01*
X152095042Y-110765319D01*
X152304286Y-110765319D01*
X152383434Y-111015670D01*
X152649606Y-111142820D01*
X152935468Y-111215597D01*
X153230037Y-111231208D01*
X153521991Y-111189051D01*
X153800111Y-111090747D01*
X153940566Y-111015670D01*
X154019714Y-110765319D01*
X153162000Y-109907605D01*
X152304286Y-110765319D01*
X152095042Y-110765319D01*
X152110312Y-110714982D01*
X152122572Y-110590500D01*
X152122572Y-110585047D01*
X152124681Y-110585714D01*
X152982395Y-109728000D01*
X153341605Y-109728000D01*
X154199319Y-110585714D01*
X154449670Y-110506566D01*
X154576820Y-110240394D01*
X154649597Y-109954532D01*
X154665208Y-109659963D01*
X154623051Y-109368009D01*
X154524747Y-109089889D01*
X154449670Y-108949434D01*
X154199319Y-108870286D01*
X153341605Y-109728000D01*
X152982395Y-109728000D01*
X152124681Y-108870286D01*
X152122572Y-108870953D01*
X152122572Y-108865500D01*
X152110312Y-108741018D01*
X152095043Y-108690681D01*
X152304286Y-108690681D01*
X153162000Y-109548395D01*
X154019714Y-108690681D01*
X153940566Y-108440330D01*
X153674394Y-108313180D01*
X153388532Y-108240403D01*
X153093963Y-108224792D01*
X152802009Y-108266949D01*
X152523889Y-108365253D01*
X152383434Y-108440330D01*
X152304286Y-108690681D01*
X152095043Y-108690681D01*
X152074002Y-108621320D01*
X152015037Y-108511006D01*
X151935685Y-108414315D01*
X151838994Y-108334963D01*
X151728680Y-108275998D01*
X151608982Y-108239688D01*
X151484500Y-108227428D01*
X149759500Y-108227428D01*
X149635018Y-108239688D01*
X149515320Y-108275998D01*
X149405006Y-108334963D01*
X149308315Y-108414315D01*
X149228963Y-108511006D01*
X149169998Y-108621320D01*
X149133688Y-108741018D01*
X149121428Y-108865500D01*
X144600534Y-108865500D01*
X144516110Y-108441075D01*
X144347631Y-108034331D01*
X144103038Y-107668271D01*
X143791729Y-107356962D01*
X143425669Y-107112369D01*
X143018925Y-106943890D01*
X142587128Y-106858000D01*
X142146872Y-106858000D01*
X141715075Y-106943890D01*
X141308331Y-107112369D01*
X140942271Y-107356962D01*
X140630962Y-107668271D01*
X140386369Y-108034331D01*
X140217890Y-108441075D01*
X140132000Y-108872872D01*
X129438000Y-108872872D01*
X129438000Y-73477010D01*
X133319483Y-73477010D01*
X133360766Y-73754140D01*
X133455321Y-74017892D01*
X133520612Y-74140043D01*
X133763295Y-74210100D01*
X134567395Y-73406000D01*
X134926605Y-73406000D01*
X135730705Y-74210100D01*
X135973388Y-74140043D01*
X136093028Y-73886682D01*
X136160941Y-73614849D01*
X136174517Y-73334990D01*
X136133234Y-73057860D01*
X136038679Y-72794108D01*
X135973388Y-72671957D01*
X135730705Y-72601900D01*
X134926605Y-73406000D01*
X134567395Y-73406000D01*
X133763295Y-72601900D01*
X133520612Y-72671957D01*
X133400972Y-72925318D01*
X133333059Y-73197151D01*
X133319483Y-73477010D01*
X129438000Y-73477010D01*
X129438000Y-67342418D01*
X129441193Y-67310000D01*
X129428450Y-67180617D01*
X129390710Y-67056207D01*
X129329425Y-66941550D01*
X129246948Y-66841052D01*
X129146450Y-66758575D01*
X129031793Y-66697290D01*
X128907383Y-66659550D01*
X128810419Y-66650000D01*
X128778000Y-66646807D01*
X128745581Y-66650000D01*
X102641000Y-66650000D01*
X102641000Y-55270000D01*
X132837969Y-55270000D01*
X132749265Y-55296908D01*
G36*
X149402008Y-57071557D02*
G01*
X149199733Y-57206713D01*
X149027713Y-57378733D01*
X148892557Y-57581008D01*
X148799460Y-57805764D01*
X148752000Y-58044363D01*
X148752000Y-58287637D01*
X148799460Y-58526236D01*
X148892557Y-58750992D01*
X149027713Y-58953267D01*
X149199733Y-59125287D01*
X149402008Y-59260443D01*
X149584112Y-59335873D01*
X149572101Y-59338262D01*
X149313241Y-59445486D01*
X149080273Y-59601150D01*
X148882150Y-59799273D01*
X148726486Y-60032241D01*
X148619262Y-60291101D01*
X148564600Y-60565906D01*
X148564600Y-60846094D01*
X148619262Y-61120899D01*
X148726486Y-61379759D01*
X148882150Y-61612727D01*
X149080273Y-61810850D01*
X149313241Y-61966514D01*
X149336142Y-61976000D01*
X149313241Y-61985486D01*
X149080273Y-62141150D01*
X148882150Y-62339273D01*
X148726486Y-62572241D01*
X148619262Y-62831101D01*
X148564600Y-63105906D01*
X148564600Y-63386094D01*
X148619262Y-63660899D01*
X148726486Y-63919759D01*
X148882150Y-64152727D01*
X149080273Y-64350850D01*
X149313241Y-64506514D01*
X149336142Y-64516000D01*
X149313241Y-64525486D01*
X149080273Y-64681150D01*
X148882150Y-64879273D01*
X148726486Y-65112241D01*
X148619262Y-65371101D01*
X148564600Y-65645906D01*
X148564600Y-65926094D01*
X148619262Y-66200899D01*
X148726486Y-66459759D01*
X148882150Y-66692727D01*
X149080273Y-66890850D01*
X149313241Y-67046514D01*
X149335245Y-67055628D01*
X149252957Y-67099612D01*
X149182900Y-67342295D01*
X149987000Y-68146395D01*
X150791100Y-67342295D01*
X150721043Y-67099612D01*
X150632972Y-67058024D01*
X150660759Y-67046514D01*
X150893727Y-66890850D01*
X151091850Y-66692727D01*
X151247514Y-66459759D01*
X151354738Y-66200899D01*
X151409400Y-65926094D01*
X151409400Y-65645906D01*
X151354738Y-65371101D01*
X151247514Y-65112241D01*
X151091850Y-64879273D01*
X150893727Y-64681150D01*
X150660759Y-64525486D01*
X150637858Y-64516000D01*
X150660759Y-64506514D01*
X150893727Y-64350850D01*
X151091850Y-64152727D01*
X151247514Y-63919759D01*
X151354738Y-63660899D01*
X151409400Y-63386094D01*
X151409400Y-63105906D01*
X151354738Y-62831101D01*
X151247514Y-62572241D01*
X151091850Y-62339273D01*
X150893727Y-62141150D01*
X150660759Y-61985486D01*
X150637858Y-61976000D01*
X150660759Y-61966514D01*
X150893727Y-61810850D01*
X151091850Y-61612727D01*
X151247514Y-61379759D01*
X151354738Y-61120899D01*
X151409400Y-60846094D01*
X151409400Y-60565906D01*
X151354738Y-60291101D01*
X151277599Y-60104872D01*
X153467000Y-60104872D01*
X153467000Y-60545128D01*
X153552890Y-60976925D01*
X153721369Y-61383669D01*
X153965962Y-61749729D01*
X154277271Y-62061038D01*
X154643331Y-62305631D01*
X155050075Y-62474110D01*
X155481872Y-62560000D01*
X155922128Y-62560000D01*
X156353925Y-62474110D01*
X156760669Y-62305631D01*
X157126729Y-62061038D01*
X157438038Y-61749729D01*
X157682631Y-61383669D01*
X157851110Y-60976925D01*
X157937000Y-60545128D01*
X157937000Y-60104872D01*
X157851110Y-59673075D01*
X157682631Y-59266331D01*
X157438038Y-58900271D01*
X157126729Y-58588962D01*
X156760669Y-58344369D01*
X156353925Y-58175890D01*
X155922128Y-58090000D01*
X155481872Y-58090000D01*
X155050075Y-58175890D01*
X154643331Y-58344369D01*
X154277271Y-58588962D01*
X153965962Y-58900271D01*
X153721369Y-59266331D01*
X153552890Y-59673075D01*
X153467000Y-60104872D01*
X151277599Y-60104872D01*
X151247514Y-60032241D01*
X151091850Y-59799273D01*
X150893727Y-59601150D01*
X150660759Y-59445486D01*
X150401899Y-59338262D01*
X150389888Y-59335873D01*
X150571992Y-59260443D01*
X150774267Y-59125287D01*
X150946287Y-58953267D01*
X151081443Y-58750992D01*
X151174540Y-58526236D01*
X151222000Y-58287637D01*
X151222000Y-58044363D01*
X151174540Y-57805764D01*
X151081443Y-57581008D01*
X150946287Y-57378733D01*
X150774267Y-57206713D01*
X150571992Y-57071557D01*
X150485426Y-57035700D01*
X160134300Y-57035700D01*
X160134301Y-60947300D01*
X159810284Y-60947300D01*
X159765999Y-60942938D01*
X159721714Y-60947300D01*
X159721713Y-60947300D01*
X159589236Y-60960348D01*
X159419265Y-61011908D01*
X159262619Y-61095637D01*
X159125317Y-61208317D01*
X159097081Y-61242723D01*
X152428724Y-67911081D01*
X152394318Y-67939317D01*
X152281638Y-68076619D01*
X152259973Y-68117151D01*
X152197908Y-68233266D01*
X152146348Y-68403237D01*
X152128938Y-68580000D01*
X152133301Y-68624297D01*
X152133300Y-72504300D01*
X151095209Y-72504300D01*
X151091850Y-72499273D01*
X150893727Y-72301150D01*
X150660759Y-72145486D01*
X150637858Y-72136000D01*
X150660759Y-72126514D01*
X150893727Y-71970850D01*
X151091850Y-71772727D01*
X151247514Y-71539759D01*
X151354738Y-71280899D01*
X151409400Y-71006094D01*
X151409400Y-70725906D01*
X151354738Y-70451101D01*
X151247514Y-70192241D01*
X151091850Y-69959273D01*
X150893727Y-69761150D01*
X150660759Y-69605486D01*
X150638755Y-69596372D01*
X150721043Y-69552388D01*
X150791100Y-69309705D01*
X149987000Y-68505605D01*
X149182900Y-69309705D01*
X149252957Y-69552388D01*
X149341028Y-69593976D01*
X149313241Y-69605486D01*
X149080273Y-69761150D01*
X148882150Y-69959273D01*
X148785447Y-70104000D01*
X135948553Y-70104000D01*
X135851850Y-69959273D01*
X135653727Y-69761150D01*
X135420759Y-69605486D01*
X135397858Y-69596000D01*
X135420759Y-69586514D01*
X135653727Y-69430850D01*
X135851850Y-69232727D01*
X136007514Y-68999759D01*
X136114738Y-68740899D01*
X136169400Y-68466094D01*
X136169400Y-68397010D01*
X148559483Y-68397010D01*
X148600766Y-68674140D01*
X148695321Y-68937892D01*
X148760612Y-69060043D01*
X149003295Y-69130100D01*
X149807395Y-68326000D01*
X150166605Y-68326000D01*
X150970705Y-69130100D01*
X151213388Y-69060043D01*
X151333028Y-68806682D01*
X151400941Y-68534849D01*
X151414517Y-68254990D01*
X151373234Y-67977860D01*
X151278679Y-67714108D01*
X151213388Y-67591957D01*
X150970705Y-67521900D01*
X150166605Y-68326000D01*
X149807395Y-68326000D01*
X149003295Y-67521900D01*
X148760612Y-67591957D01*
X148640972Y-67845318D01*
X148573059Y-68117151D01*
X148559483Y-68397010D01*
X136169400Y-68397010D01*
X136169400Y-68185906D01*
X136114738Y-67911101D01*
X136007514Y-67652241D01*
X135851850Y-67419273D01*
X135653727Y-67221150D01*
X135420759Y-67065486D01*
X135397858Y-67056000D01*
X135420759Y-67046514D01*
X135653727Y-66890850D01*
X135851850Y-66692727D01*
X136007514Y-66459759D01*
X136114738Y-66200899D01*
X136169400Y-65926094D01*
X136169400Y-65645906D01*
X136114738Y-65371101D01*
X136007514Y-65112241D01*
X135851850Y-64879273D01*
X135653727Y-64681150D01*
X135420759Y-64525486D01*
X135397858Y-64516000D01*
X135420759Y-64506514D01*
X135653727Y-64350850D01*
X135851850Y-64152727D01*
X136007514Y-63919759D01*
X136114738Y-63660899D01*
X136169400Y-63386094D01*
X136169400Y-63105906D01*
X136114738Y-62831101D01*
X136007514Y-62572241D01*
X135851850Y-62339273D01*
X135653727Y-62141150D01*
X135625774Y-62122473D01*
X135658882Y-62119212D01*
X135778580Y-62082902D01*
X135888894Y-62023937D01*
X135985585Y-61944585D01*
X136064937Y-61847894D01*
X136123902Y-61737580D01*
X136160212Y-61617882D01*
X136172472Y-61493400D01*
X136172472Y-59918600D01*
X136160212Y-59794118D01*
X136123902Y-59674420D01*
X136064937Y-59564106D01*
X135985585Y-59467415D01*
X135888894Y-59388063D01*
X135778580Y-59329098D01*
X135658882Y-59292788D01*
X135534400Y-59280528D01*
X135283503Y-59280528D01*
X135331992Y-59260443D01*
X135534267Y-59125287D01*
X135706287Y-58953267D01*
X135841443Y-58750992D01*
X135934540Y-58526236D01*
X135982000Y-58287637D01*
X135982000Y-58044363D01*
X135934540Y-57805764D01*
X135841443Y-57581008D01*
X135706287Y-57378733D01*
X135534267Y-57206713D01*
X135331992Y-57071557D01*
X135245426Y-57035700D01*
X149488574Y-57035700D01*
X149402008Y-57071557D01*
X149402008Y-57071557D01*
G37*
X149402008Y-57071557D02*
X149199733Y-57206713D01*
X149027713Y-57378733D01*
X148892557Y-57581008D01*
X148799460Y-57805764D01*
X148752000Y-58044363D01*
X148752000Y-58287637D01*
X148799460Y-58526236D01*
X148892557Y-58750992D01*
X149027713Y-58953267D01*
X149199733Y-59125287D01*
X149402008Y-59260443D01*
X149584112Y-59335873D01*
X149572101Y-59338262D01*
X149313241Y-59445486D01*
X149080273Y-59601150D01*
X148882150Y-59799273D01*
X148726486Y-60032241D01*
X148619262Y-60291101D01*
X148564600Y-60565906D01*
X148564600Y-60846094D01*
X148619262Y-61120899D01*
X148726486Y-61379759D01*
X148882150Y-61612727D01*
X149080273Y-61810850D01*
X149313241Y-61966514D01*
X149336142Y-61976000D01*
X149313241Y-61985486D01*
X149080273Y-62141150D01*
X148882150Y-62339273D01*
X148726486Y-62572241D01*
X148619262Y-62831101D01*
X148564600Y-63105906D01*
X148564600Y-63386094D01*
X148619262Y-63660899D01*
X148726486Y-63919759D01*
X148882150Y-64152727D01*
X149080273Y-64350850D01*
X149313241Y-64506514D01*
X149336142Y-64516000D01*
X149313241Y-64525486D01*
X149080273Y-64681150D01*
X148882150Y-64879273D01*
X148726486Y-65112241D01*
X148619262Y-65371101D01*
X148564600Y-65645906D01*
X148564600Y-65926094D01*
X148619262Y-66200899D01*
X148726486Y-66459759D01*
X148882150Y-66692727D01*
X149080273Y-66890850D01*
X149313241Y-67046514D01*
X149335245Y-67055628D01*
X149252957Y-67099612D01*
X149182900Y-67342295D01*
X149987000Y-68146395D01*
X150791100Y-67342295D01*
X150721043Y-67099612D01*
X150632972Y-67058024D01*
X150660759Y-67046514D01*
X150893727Y-66890850D01*
X151091850Y-66692727D01*
X151247514Y-66459759D01*
X151354738Y-66200899D01*
X151409400Y-65926094D01*
X151409400Y-65645906D01*
X151354738Y-65371101D01*
X151247514Y-65112241D01*
X151091850Y-64879273D01*
X150893727Y-64681150D01*
X150660759Y-64525486D01*
X150637858Y-64516000D01*
X150660759Y-64506514D01*
X150893727Y-64350850D01*
X151091850Y-64152727D01*
X151247514Y-63919759D01*
X151354738Y-63660899D01*
X151409400Y-63386094D01*
X151409400Y-63105906D01*
X151354738Y-62831101D01*
X151247514Y-62572241D01*
X151091850Y-62339273D01*
X150893727Y-62141150D01*
X150660759Y-61985486D01*
X150637858Y-61976000D01*
X150660759Y-61966514D01*
X150893727Y-61810850D01*
X151091850Y-61612727D01*
X151247514Y-61379759D01*
X151354738Y-61120899D01*
X151409400Y-60846094D01*
X151409400Y-60565906D01*
X151354738Y-60291101D01*
X151277599Y-60104872D01*
X153467000Y-60104872D01*
X153467000Y-60545128D01*
X153552890Y-60976925D01*
X153721369Y-61383669D01*
X153965962Y-61749729D01*
X154277271Y-62061038D01*
X154643331Y-62305631D01*
X155050075Y-62474110D01*
X155481872Y-62560000D01*
X155922128Y-62560000D01*
X156353925Y-62474110D01*
X156760669Y-62305631D01*
X157126729Y-62061038D01*
X157438038Y-61749729D01*
X157682631Y-61383669D01*
X157851110Y-60976925D01*
X157937000Y-60545128D01*
X157937000Y-60104872D01*
X157851110Y-59673075D01*
X157682631Y-59266331D01*
X157438038Y-58900271D01*
X157126729Y-58588962D01*
X156760669Y-58344369D01*
X156353925Y-58175890D01*
X155922128Y-58090000D01*
X155481872Y-58090000D01*
X155050075Y-58175890D01*
X154643331Y-58344369D01*
X154277271Y-58588962D01*
X153965962Y-58900271D01*
X153721369Y-59266331D01*
X153552890Y-59673075D01*
X153467000Y-60104872D01*
X151277599Y-60104872D01*
X151247514Y-60032241D01*
X151091850Y-59799273D01*
X150893727Y-59601150D01*
X150660759Y-59445486D01*
X150401899Y-59338262D01*
X150389888Y-59335873D01*
X150571992Y-59260443D01*
X150774267Y-59125287D01*
X150946287Y-58953267D01*
X151081443Y-58750992D01*
X151174540Y-58526236D01*
X151222000Y-58287637D01*
X151222000Y-58044363D01*
X151174540Y-57805764D01*
X151081443Y-57581008D01*
X150946287Y-57378733D01*
X150774267Y-57206713D01*
X150571992Y-57071557D01*
X150485426Y-57035700D01*
X160134300Y-57035700D01*
X160134301Y-60947300D01*
X159810284Y-60947300D01*
X159765999Y-60942938D01*
X159721714Y-60947300D01*
X159721713Y-60947300D01*
X159589236Y-60960348D01*
X159419265Y-61011908D01*
X159262619Y-61095637D01*
X159125317Y-61208317D01*
X159097081Y-61242723D01*
X152428724Y-67911081D01*
X152394318Y-67939317D01*
X152281638Y-68076619D01*
X152259973Y-68117151D01*
X152197908Y-68233266D01*
X152146348Y-68403237D01*
X152128938Y-68580000D01*
X152133301Y-68624297D01*
X152133300Y-72504300D01*
X151095209Y-72504300D01*
X151091850Y-72499273D01*
X150893727Y-72301150D01*
X150660759Y-72145486D01*
X150637858Y-72136000D01*
X150660759Y-72126514D01*
X150893727Y-71970850D01*
X151091850Y-71772727D01*
X151247514Y-71539759D01*
X151354738Y-71280899D01*
X151409400Y-71006094D01*
X151409400Y-70725906D01*
X151354738Y-70451101D01*
X151247514Y-70192241D01*
X151091850Y-69959273D01*
X150893727Y-69761150D01*
X150660759Y-69605486D01*
X150638755Y-69596372D01*
X150721043Y-69552388D01*
X150791100Y-69309705D01*
X149987000Y-68505605D01*
X149182900Y-69309705D01*
X149252957Y-69552388D01*
X149341028Y-69593976D01*
X149313241Y-69605486D01*
X149080273Y-69761150D01*
X148882150Y-69959273D01*
X148785447Y-70104000D01*
X135948553Y-70104000D01*
X135851850Y-69959273D01*
X135653727Y-69761150D01*
X135420759Y-69605486D01*
X135397858Y-69596000D01*
X135420759Y-69586514D01*
X135653727Y-69430850D01*
X135851850Y-69232727D01*
X136007514Y-68999759D01*
X136114738Y-68740899D01*
X136169400Y-68466094D01*
X136169400Y-68397010D01*
X148559483Y-68397010D01*
X148600766Y-68674140D01*
X148695321Y-68937892D01*
X148760612Y-69060043D01*
X149003295Y-69130100D01*
X149807395Y-68326000D01*
X150166605Y-68326000D01*
X150970705Y-69130100D01*
X151213388Y-69060043D01*
X151333028Y-68806682D01*
X151400941Y-68534849D01*
X151414517Y-68254990D01*
X151373234Y-67977860D01*
X151278679Y-67714108D01*
X151213388Y-67591957D01*
X150970705Y-67521900D01*
X150166605Y-68326000D01*
X149807395Y-68326000D01*
X149003295Y-67521900D01*
X148760612Y-67591957D01*
X148640972Y-67845318D01*
X148573059Y-68117151D01*
X148559483Y-68397010D01*
X136169400Y-68397010D01*
X136169400Y-68185906D01*
X136114738Y-67911101D01*
X136007514Y-67652241D01*
X135851850Y-67419273D01*
X135653727Y-67221150D01*
X135420759Y-67065486D01*
X135397858Y-67056000D01*
X135420759Y-67046514D01*
X135653727Y-66890850D01*
X135851850Y-66692727D01*
X136007514Y-66459759D01*
X136114738Y-66200899D01*
X136169400Y-65926094D01*
X136169400Y-65645906D01*
X136114738Y-65371101D01*
X136007514Y-65112241D01*
X135851850Y-64879273D01*
X135653727Y-64681150D01*
X135420759Y-64525486D01*
X135397858Y-64516000D01*
X135420759Y-64506514D01*
X135653727Y-64350850D01*
X135851850Y-64152727D01*
X136007514Y-63919759D01*
X136114738Y-63660899D01*
X136169400Y-63386094D01*
X136169400Y-63105906D01*
X136114738Y-62831101D01*
X136007514Y-62572241D01*
X135851850Y-62339273D01*
X135653727Y-62141150D01*
X135625774Y-62122473D01*
X135658882Y-62119212D01*
X135778580Y-62082902D01*
X135888894Y-62023937D01*
X135985585Y-61944585D01*
X136064937Y-61847894D01*
X136123902Y-61737580D01*
X136160212Y-61617882D01*
X136172472Y-61493400D01*
X136172472Y-59918600D01*
X136160212Y-59794118D01*
X136123902Y-59674420D01*
X136064937Y-59564106D01*
X135985585Y-59467415D01*
X135888894Y-59388063D01*
X135778580Y-59329098D01*
X135658882Y-59292788D01*
X135534400Y-59280528D01*
X135283503Y-59280528D01*
X135331992Y-59260443D01*
X135534267Y-59125287D01*
X135706287Y-58953267D01*
X135841443Y-58750992D01*
X135934540Y-58526236D01*
X135982000Y-58287637D01*
X135982000Y-58044363D01*
X135934540Y-57805764D01*
X135841443Y-57581008D01*
X135706287Y-57378733D01*
X135534267Y-57206713D01*
X135331992Y-57071557D01*
X135245426Y-57035700D01*
X149488574Y-57035700D01*
X149402008Y-57071557D01*
G36*
X165100000Y-64643000D02*
G01*
X165120000Y-64643000D01*
X165120000Y-64897000D01*
X165100000Y-64897000D01*
X165100000Y-64917000D01*
X164846000Y-64917000D01*
X164846000Y-64897000D01*
X164826000Y-64897000D01*
X164826000Y-64643000D01*
X164846000Y-64643000D01*
X164846000Y-64623000D01*
X165100000Y-64623000D01*
X165100000Y-64643000D01*
X165100000Y-64643000D01*
G37*
X165100000Y-64643000D02*
X165120000Y-64643000D01*
X165120000Y-64897000D01*
X165100000Y-64897000D01*
X165100000Y-64917000D01*
X164846000Y-64917000D01*
X164846000Y-64897000D01*
X164826000Y-64897000D01*
X164826000Y-64643000D01*
X164846000Y-64643000D01*
X164846000Y-64623000D01*
X165100000Y-64623000D01*
X165100000Y-64643000D01*
M02*
