G04 #@! TF.GenerationSoftware,KiCad,Pcbnew,(5.1.4)-1*
G04 #@! TF.CreationDate,2019-11-18T13:36:41+01:00*
G04 #@! TF.ProjectId,LIN bus,4c494e20-6275-4732-9e6b-696361645f70,rev?*
G04 #@! TF.SameCoordinates,Original*
G04 #@! TF.FileFunction,Soldermask,Bot*
G04 #@! TF.FilePolarity,Negative*
%FSLAX46Y46*%
G04 Gerber Fmt 4.6, Leading zero omitted, Abs format (unit mm)*
G04 Created by KiCad (PCBNEW (5.1.4)-1) date 2019-11-18 13:36:41*
%MOMM*%
%LPD*%
G04 APERTURE LIST*
%ADD10C,1.826600*%
%ADD11R,1.826600X1.826600*%
%ADD12O,1.801600X1.801600*%
%ADD13R,1.801600X1.801600*%
%ADD14C,3.301600*%
%ADD15R,1.676400X1.676400*%
%ADD16C,1.676400*%
%ADD17C,1.301600*%
G04 APERTURE END LIST*
D10*
X153162000Y-109728000D03*
D11*
X150622000Y-109728000D03*
D12*
X162433000Y-64770000D03*
X162433000Y-67310000D03*
X164973000Y-64770000D03*
X164973000Y-67310000D03*
X167513000Y-64770000D03*
X167513000Y-67310000D03*
X170053000Y-64770000D03*
X170053000Y-67310000D03*
X172593000Y-64770000D03*
D13*
X172593000Y-67310000D03*
D14*
X155702000Y-60325000D03*
X127000000Y-60325000D03*
X142367000Y-109093000D03*
D13*
X106807000Y-60198000D03*
D12*
X109347000Y-60198000D03*
X111887000Y-60198000D03*
X114427000Y-60198000D03*
X116967000Y-60198000D03*
X119507000Y-60198000D03*
D15*
X134747000Y-60706000D03*
D16*
X134747000Y-63246000D03*
X134747000Y-65786000D03*
X134747000Y-68326000D03*
X134747000Y-70866000D03*
X134747000Y-73406000D03*
X134747000Y-75946000D03*
X134747000Y-78486000D03*
X134747000Y-81026000D03*
X134747000Y-83566000D03*
X134747000Y-86106000D03*
X134747000Y-88646000D03*
X134747000Y-91186000D03*
X134747000Y-93726000D03*
X134747000Y-96266000D03*
X134747000Y-98806000D03*
X134747000Y-101346000D03*
X149987000Y-101346000D03*
X149987000Y-98806000D03*
X149987000Y-96266000D03*
X149987000Y-93726000D03*
X149987000Y-91186000D03*
X149987000Y-88646000D03*
X149987000Y-86106000D03*
X149987000Y-83566000D03*
X149987000Y-81026000D03*
X149987000Y-78486000D03*
X149987000Y-75946000D03*
X149987000Y-73406000D03*
X149987000Y-70866000D03*
X149987000Y-68326000D03*
X149987000Y-65786000D03*
X149987000Y-63246000D03*
X149987000Y-60706000D03*
D17*
X134747000Y-103886000D03*
X149987000Y-103886000D03*
X134747000Y-58166000D03*
X149987000Y-58166000D03*
M02*
