M48
; DRILL file {KiCad (5.1.4)-1} date 2019-11-18 13:32:34
; FORMAT={-:-/ absolute / inch / decimal}
; #@! TF.CreationDate,2019-11-18T13:32:34+01:00
; #@! TF.GenerationSoftware,Kicad,Pcbnew,(5.1.4)-1
; #@! TF.FileFunction,Plated,1,2,PTH
FMAT,2
INCH
T1C0.0360
T2C0.0394
T3C0.0453
%
G90
G05
T1
X5.305Y-2.39
X5.305Y-2.49
X5.305Y-2.59
X5.305Y-2.69
X5.305Y-2.79
X5.305Y-2.89
X5.305Y-2.99
X5.305Y-3.09
X5.305Y-3.19
X5.305Y-3.29
X5.305Y-3.39
X5.305Y-3.49
X5.305Y-3.59
X5.305Y-3.69
X5.305Y-3.79
X5.305Y-3.89
X5.305Y-3.99
X5.905Y-2.39
X5.905Y-2.49
X5.905Y-2.59
X5.905Y-2.69
X5.905Y-2.79
X5.905Y-2.89
X5.905Y-2.99
X5.905Y-3.09
X5.905Y-3.19
X5.905Y-3.29
X5.905Y-3.39
X5.905Y-3.49
X5.905Y-3.59
X5.905Y-3.69
X5.905Y-3.79
X5.905Y-3.89
X5.905Y-3.99
T2
X4.205Y-2.37
X4.305Y-2.37
X4.405Y-2.37
X4.505Y-2.37
X4.605Y-2.37
X4.705Y-2.37
X6.395Y-2.55
X6.395Y-2.65
X6.495Y-2.55
X6.495Y-2.65
X6.595Y-2.55
X6.595Y-2.65
X6.695Y-2.55
X6.695Y-2.65
X6.795Y-2.55
X6.795Y-2.65
T3
X5.93Y-4.32
X6.03Y-4.32
T0
M30
